<?xml version="1.0" encoding="UTF-8"?>
<svg version="1.1" xmlns="http://www.w3.org/2000/svg" width="128" height="128">
<path d="M0 0 C0.99 0.33 1.98 0.66 3 1 C3 1.66 3 2.32 3 3 C3.515625 2.7525 4.03125 2.505 4.5625 2.25 C7.7800385 1.91999605 9.54816504 3.21327663 12.21875 4.89453125 C15.39852674 6.86794532 18.73872047 8.31771998 22.1875 9.75 C27.1132713 11.93106291 31.85596853 14.53122366 36 18 C36.495 19.485 36.495 19.485 37 21 C38.17240243 22.13890522 39.3460267 23.27659404 40.52734375 24.40625 C46.93479452 31.34057338 49.34914964 37.59633063 49.29296875 46.93359375 C48.94039647 50.6238503 47.87468853 52.98653891 46.0078125 56.1328125 C44.92472599 58.13946116 44.46206117 59.89870525 44 62.125 C42.78364967 67.47274716 40.38616207 70.90876603 36.0625 74.3125 C33.24438213 75.86534046 31.16827466 76.6272618 28 77 C28.33 77.66 28.66 78.32 29 79 C30.2375 78.71125 31.475 78.4225 32.75 78.125 C36.57150148 77.28451154 40.40025742 76.51288634 44.25 75.8125 C45.22453125 75.63332031 46.1990625 75.45414062 47.203125 75.26953125 C51.33181534 74.87165467 53.99536119 75.19070763 57.25 77.8125 C59.04913315 80.06141643 59.74213884 81.16352728 60 84 C59.84789063 84.69351563 59.69578125 85.38703125 59.5390625 86.1015625 C58.70392833 90.5919216 58.64563517 95.11579839 58.48242188 99.67382812 C58.23151622 104.99965563 57.94981393 110.05018607 54 114 C52.65835921 113.7018576 51.32676508 113.35858516 50 113 C43.35489563 112.50677363 37.40871438 114.17634489 31 115.8125 C24.04107376 117.54256987 17.11217753 119.24594784 10.0625 120.5625 C2.85399925 121.93672332 -4.15100444 123.89320177 -11.19921875 125.9140625 C-16.77819764 127.50805647 -21.68031557 128.23839536 -27.5 128.3125 C-28.25925781 128.34150391 -29.01851562 128.37050781 -29.80078125 128.40039062 C-33.40543657 128.44142435 -35.53151889 128.3476545 -38.46875 126.16796875 C-40.95870679 122.64264727 -41.09148767 119.93556096 -41 115.75 C-40.95143137 112.13384462 -41.00287505 108.58072426 -41.32421875 104.98046875 C-41.38287109 104.30854492 -41.44152344 103.63662109 -41.50195312 102.94433594 C-41.68056471 101.01251059 -41.87703425 99.08236177 -42.07421875 97.15234375 C-42 94 -42 94 -40.64453125 92.06640625 C-39 91 -39 91 -37 91 C-37 91.66 -37 92.32 -37 93 C-27.23226387 91.42185903 -17.69933149 89.55068507 -8.171875 86.8671875 C-5.45555643 86.12454868 -2.76783518 85.50986438 0 85 C-0.804375 84.62875 -0.804375 84.62875 -1.625 84.25 C-4.60525596 82.68144423 -7.30987348 81.03254003 -10 79 C-10.35169068 77.67139075 -10.68770276 76.33841672 -11 75 C-12.66072849 74.31867549 -14.327767 73.65257873 -16 73 C-16.6837045 71.67532254 -17.34964186 70.34136367 -18 69 C-18.79019531 68.5771875 -19.58039062 68.154375 -20.39453125 67.71875 C-23.57773276 65.61888693 -24.2834517 63.94062383 -25.6875 60.4375 C-27.29603481 56.36046973 -27.29603481 56.36046973 -30 53 C-31.14330241 46.25451579 -32.30072181 39.27137143 -29 33 C-27.69864875 31.30824337 -26.36244796 29.64295195 -25 28 C-24.29875 26.906875 -23.5975 25.81375 -22.875 24.6875 C-22.25625 23.800625 -21.6375 22.91375 -21 22 C-20.34 22 -19.68 22 -19 22 C-18.91621094 21.39929688 -18.83242188 20.79859375 -18.74609375 20.1796875 C-17.77902467 17.35442809 -16.54943588 16.71699874 -14.0625 15.125 C-10.58119163 12.72408909 -10.58119163 12.72408909 -8.9375 8.8125 C-8.628125 7.884375 -8.31875 6.95625 -8 6 C-4.4375 4.3125 -4.4375 4.3125 -1 3 C-0.67 2.01 -0.34 1.02 0 0 Z " fill="#217D3D" transform="translate(53,0)"/>
<path d="M0 0 C1.65 1.32 3.3 2.64 5 4 C5.33 3.34 5.66 2.68 6 2 C6.66 2 7.32 2 8 2 C8 3.32 8 4.64 8 6 C9.32 5.67 10.64 5.34 12 5 C14.475 8.96 14.475 8.96 17 13 C16.505 10.03 16.505 10.03 16 7 C18.2477975 9.05233685 19.0022242 10.00667261 20 13 C20.66 12.34 21.32 11.68 22 11 C21.69121904 14.60244452 21.00552268 15.99345998 18.625 18.8125 C16 21 16 21 13 21 C11.97980427 21.9793879 10.97850195 22.97895449 10 24 C9.34 24 8.68 24 8 24 C8 24.66 8 25.32 8 26 C9.58467728 25.71572583 11.1677057 25.42225182 12.75 25.125 C14.07257813 24.88136719 14.07257813 24.88136719 15.421875 24.6328125 C17.89733667 24.02519918 19.82641115 23.32177701 22 22 C22.33 21.34 22.66 20.68 23 20 C23.66 20 24.32 20 25 20 C25 19.34 25 18.68 25 18 C23.35 18.66 21.7 19.32 20 20 C20.66 18.68 21.32 17.36 22 16 C23.32 16 24.64 16 26 16 C26 16.66 26 17.32 26 18 C27.32 18.33 28.64 18.66 30 19 C30.144375 19.763125 30.28875 20.52625 30.4375 21.3125 C30.9632594 24.08172908 30.9632594 24.08172908 32 27 C33.65 27.33 35.3 27.66 37 28 C36.525625 26.906875 36.05125 25.81375 35.5625 24.6875 C34.59812191 22.46523745 33.76833172 20.30499515 33 18 C36.27983107 18.2997087 37.67081936 18.65591551 39.984375 21.07421875 C40.56703125 21.93660156 41.1496875 22.79898437 41.75 23.6875 C42.34296875 24.53699219 42.9359375 25.38648437 43.546875 26.26171875 C46.06119104 30.99971752 46.15341568 35.77943107 46.1875 41.0625 C46.20167969 42.06410156 46.21585937 43.06570312 46.23046875 44.09765625 C45.99161281 47.10562173 45.26398326 49.2771902 44 52 C43.34 52 42.68 52 42 52 C41.90525391 53.06927734 41.90525391 53.06927734 41.80859375 54.16015625 C40.85955188 61.58266265 38.89593922 65.3809888 33 70 C32.01 69.67 31.02 69.34 30 69 C30.72316406 68.41992188 30.72316406 68.41992188 31.4609375 67.828125 C32.09257813 67.30734375 32.72421875 66.7865625 33.375 66.25 C34.00148437 65.73953125 34.62796875 65.2290625 35.2734375 64.703125 C37.80420436 62.20671244 38.90075505 60.19887903 39.1953125 56.640625 C39.17210937 55.85171875 39.14890625 55.0628125 39.125 54.25 C39.10695312 53.45078125 39.08890625 52.6515625 39.0703125 51.828125 C39.04710937 51.22484375 39.02390625 50.6215625 39 50 C38.566875 51.36125 38.566875 51.36125 38.125 52.75 C35.94117647 59.05882353 35.94117647 59.05882353 34 61 C34 61.66 34 62.32 34 63 C33.01 63 32.02 63 31 63 C31 64.65 31 66.3 31 68 C30.01 68 29.02 68 28 68 C27.67 68.66 27.34 69.32 27 70 C27.99 70.495 27.99 70.495 29 71 C27.02 71.495 27.02 71.495 25 72 C25.33 73.32 25.66 74.64 26 76 C25.34 76 24.68 76 24 76 C24 75.01 24 74.02 24 73 C19.71 73 15.42 73 11 73 C10.505 72.01 10.505 72.01 10 71 C9.67 72.65 9.34 74.3 9 76 C10.485 76.495 10.485 76.495 12 77 C11.67 78.65 11.34 80.3 11 82 C10.01 81.01 9.02 80.02 8 79 C7.34 79.99 6.68 80.98 6 82 C5.071875 81.01 5.071875 81.01 4.125 80 C2.24362573 77.7715451 2.24362573 77.7715451 0 78 C-0.99 76.02 -1.98 74.04 -3 72 C-3.66 72 -4.32 72 -5 72 C-4.938125 71.278125 -4.87625 70.55625 -4.8125 69.8125 C-5.03839921 66.42401178 -6.09985034 64.7771418 -8 62 C-10.48836965 58.26744552 -10.54226552 56.41559065 -10 52 C-7.5 49.5625 -7.5 49.5625 -5 48 C-4.34 48.33 -3.68 48.66 -3 49 C-2.34 48.01 -1.68 47.02 -1 46 C-1.61488281 45.96261719 -2.22976562 45.92523438 -2.86328125 45.88671875 C-3.67152344 45.82097656 -4.47976562 45.75523438 -5.3125 45.6875 C-6.51326172 45.60048828 -6.51326172 45.60048828 -7.73828125 45.51171875 C-10.41612662 44.90585045 -11.3778691 44.19220885 -13 42 C-13.25 38.875 -13.25 38.875 -13 36 C-12.505 35.505 -12.505 35.505 -12 35 C-12.66 34.67 -13.32 34.34 -14 34 C-14 34.99 -14 35.98 -14 37 C-14.66 37 -15.32 37 -16 37 C-16 36.01 -16 35.02 -16 34 C-16.99 33.67 -17.98 33.34 -19 33 C-18.54857119 31.70590408 -18.08858979 30.41478941 -17.625 29.125 C-17.36976562 28.40570312 -17.11453125 27.68640625 -16.8515625 26.9453125 C-16 25 -16 25 -14 23 C-13.8453125 21.7625 -13.8453125 21.7625 -13.6875 20.5 C-13.460625 19.675 -13.23375 18.85 -13 18 C-10.4375 16.6875 -10.4375 16.6875 -8 16 C-8.33 14.68 -8.66 13.36 -9 12 C-8.67 12 -8.34 12 -8 12 C-7.67 9.69 -7.34 7.38 -7 5 C-5.91705245 7.0885417 -4.9772582 9.07012055 -4.25 11.3125 C-2.48418119 15.10901044 0.18788726 17.93143672 3 21 C2.21625 19.989375 1.4325 18.97875 0.625 17.9375 C-2.28705429 13.85069654 -4.41578095 9.7025762 -3.625 4.5625 C-3.41875 4.046875 -3.2125 3.53125 -3 3 C-2.67 3.99 -2.34 4.98 -2 6 C-1.01 6 -0.02 6 1 6 C0.67 4.02 0.34 2.04 0 0 Z " fill="#242627" transform="translate(54,3)"/>
<path d="M0 0 C0.495 2.475 0.495 2.475 1 5 C1.52013672 4.29423828 1.52013672 4.29423828 2.05078125 3.57421875 C4.90682937 1.26763079 7.57972865 1.24278466 11.1875 0.8125 C12.45980469 0.65394531 13.73210937 0.49539062 15.04296875 0.33203125 C16.01878906 0.22246094 16.99460937 0.11289063 18 0 C18 0.66 18 1.32 18 2 C17.34 2.33 16.68 2.66 16 3 C16 5.64 16 8.28 16 11 C19.3 10.67 22.6 10.34 26 10 C26 11.65 26 13.3 26 15 C26.33 13.02 26.66 11.04 27 9 C28.65 9 30.3 9 32 9 C32 9.66 32 10.32 32 11 C31.34 11 30.68 11 30 11 C29.89042969 11.60328125 29.78085938 12.2065625 29.66796875 12.828125 C29.43013672 14.02695313 29.43013672 14.02695313 29.1875 15.25 C28.96126953 16.43335938 28.96126953 16.43335938 28.73046875 17.640625 C27.85357535 20.47294378 27.16806122 21.94768743 25 24 C22.39018516 24.70670267 20.03119837 25.19672037 17.375 25.5625 C13.14912136 26.18870573 9.12408127 26.88122218 5.0859375 28.3046875 C0.6609075 29.85235104 -3.81952538 31.03808212 -8.359375 32.19140625 C-9.11668915 32.38386429 -9.8740033 32.57632233 -10.65426636 32.77461243 C-13.82307409 33.57647852 -16.99334998 34.37245731 -20.16357422 35.16870117 C-22.50038384 35.75683399 -24.83614108 36.34901839 -27.171875 36.94140625 C-27.88341736 37.11853653 -28.59495972 37.29566681 -29.32806396 37.47816467 C-33.01773361 38.4144755 -36.47968683 39.56353661 -40 41 C-42.28125 41.1171875 -42.28125 41.1171875 -44.5 40.875 C-45.2321875 40.81054688 -45.964375 40.74609375 -46.71875 40.6796875 C-49.89556746 39.73316997 -51.63378361 38.31613901 -54 36 C-54.56762695 33.15917969 -54.56762695 33.15917969 -54.48828125 29.921875 C-54.47216797 28.76171875 -54.45605469 27.6015625 -54.43945312 26.40625 C-54.39755859 25.1996875 -54.35566406 23.993125 -54.3125 22.75 C-54.28994141 21.52796875 -54.26738281 20.3059375 -54.24414062 19.046875 C-54.18521758 16.03001498 -54.10299265 13.01562485 -54 10 C-53.19159668 9.84136475 -52.38319336 9.68272949 -51.55029297 9.51928711 C-41.93168658 7.60632274 -32.51385181 5.03725087 -23.06494141 2.42553711 C-21.98132324 2.12784424 -20.89770508 1.83015137 -19.78125 1.5234375 C-18.81251953 1.25450684 -17.84378906 0.98557617 -16.84570312 0.70849609 C-10.75583108 -0.80770232 -6.13800043 -0.95244834 0 0 Z " fill="#23803F" transform="translate(68,87)"/>
<path d="M0 0 C1.485 0.495 1.485 0.495 3 1 C3 1.66 3 2.32 3 3 C3.515625 2.7525 4.03125 2.505 4.5625 2.25 C7.7800385 1.91999605 9.54816504 3.21327663 12.21875 4.89453125 C15.39852674 6.86794532 18.73872047 8.31771998 22.1875 9.75 C27.18642343 11.94221891 31.55862122 14.85008597 36 18 C35.80535156 18.6084375 35.61070313 19.216875 35.41015625 19.84375 C34.81428692 22.97632021 36.35396632 24.36634612 38 27 C38 28.32 38 29.64 38 31 C37.34 31 36.68 31 36 31 C35.67 32.32 35.34 33.64 35 35 C35 33.35 35 31.7 35 30 C34.34 30 33.68 30 33 30 C32.71125 29.195625 32.4225 28.39125 32.125 27.5625 C31.26737432 24.8673532 31.26737432 24.8673532 29 24 C29.66 24 30.32 24 31 24 C31 23.34 31 22.68 31 22 C29.68 21.67 28.36 21.34 27 21 C27 20.34 27 19.68 27 19 C25.68 19 24.36 19 23 19 C23 19.99 23 20.98 23 22 C23.99 21.67 24.98 21.34 26 21 C26 21.66 26 22.32 26 23 C25.34 23.66 24.68 24.32 24 25 C23.67 25.66 23.34 26.32 23 27 C20.34765625 27.88671875 20.34765625 27.88671875 17.0625 28.6875 C15.44021484 29.09548828 15.44021484 29.09548828 13.78515625 29.51171875 C11 30 11 30 9 29 C8.67 29.66 8.34 30.32 8 31 C8.33 29.35 8.66 27.7 9 26 C9.99 26 10.98 26 12 26 C13.70532323 24.05990478 13.70532323 24.05990478 15 22 C15.495 22.99 15.495 22.99 16 24 C17.98 21.69 19.96 19.38 22 17 C21.01 17.495 21.01 17.495 20 18 C19.505 16.02 19.505 16.02 19 14 C18.67 15.32 18.34 16.64 18 18 C16.35 15.03 14.7 12.06 13 9 C12.34 9.33 11.68 9.66 11 10 C10.34 9.67 9.68 9.34 9 9 C9 7.68 9 6.36 9 5 C8.34 5 7.68 5 7 5 C6.67 5.99 6.34 6.98 6 8 C4.68 6.68 3.36 5.36 2 4 C2.495 6.97 2.495 6.97 3 10 C1.0625 9.625 1.0625 9.625 -1 9 C-1.33 8.34 -1.66 7.68 -2 7 C-1.09531903 13.83236674 0.07892034 18.07892034 5 23 C4.67 23.66 4.34 24.32 4 25 C2.84501103 23.92643323 1.70132133 22.84070212 0.5625 21.75 C-0.07558594 21.14671875 -0.71367188 20.5434375 -1.37109375 19.921875 C-3.10996778 17.87025384 -3.53182293 16.60457129 -4 14 C-4.33 13.34 -4.66 12.68 -5 12 C-6.50930183 15.3863251 -6.50930183 15.3863251 -7 19 C-8.65 19.66 -10.3 20.32 -12 21 C-11.9175 21.70125 -11.835 22.4025 -11.75 23.125 C-12.08136312 26.93567589 -13.82679328 28.90482679 -16 32 C-16.76939681 34.22602615 -16.76939681 34.22602615 -17 36 C-16.34 36.33 -15.68 36.66 -15 37 C-15 37.99 -15 38.98 -15 40 C-14.34 40 -13.68 40 -13 40 C-13 39.01 -13 38.02 -13 37 C-11.68 37.33 -10.36 37.66 -9 38 C-9.99 38.495 -9.99 38.495 -11 39 C-11.16681109 41.91652174 -11.16681109 41.91652174 -11 45 C-8.50494038 47.49505962 -7.32671112 47.35948376 -3.875 47.625 C-2.96492188 47.69976562 -2.05484375 47.77453125 -1.1171875 47.8515625 C-0.41851562 47.90054688 0.28015625 47.94953125 1 48 C0.34 49.98 -0.32 51.96 -1 54 C-1.99 53.34 -2.98 52.68 -4 52 C-6.13875077 53.01760473 -6.13875077 53.01760473 -8 55 C-8.8183953 59.63757337 -8.03395564 62.33662726 -5.5625 66.1875 C-5.11003906 66.82042969 -4.65757813 67.45335938 -4.19140625 68.10546875 C-2.94071308 70.09427592 -2.51638032 71.72700447 -2 74 C-1.00585407 75.67016516 -0.0064275 77.33720673 1 79 C1 79.66 1 80.32 1 81 C1.99 80.67 2.98 80.34 4 80 C3.505 81.485 3.505 81.485 3 83 C2.01 82.67 1.02 82.34 0 82 C0 81.34 0 80.68 0 80 C-0.598125 80.165 -1.19625 80.33 -1.8125 80.5 C-4 81 -4 81 -7 81 C-9.1875 79.125 -9.1875 79.125 -11 77 C-11 76.34 -11 75.68 -11 75 C-12.175625 74.62875 -12.175625 74.62875 -13.375 74.25 C-16.46879902 72.77676237 -16.56554536 71.95856269 -18 69 C-18.79019531 68.5771875 -19.58039062 68.154375 -20.39453125 67.71875 C-23.57773276 65.61888693 -24.2834517 63.94062383 -25.6875 60.4375 C-27.29603481 56.36046973 -27.29603481 56.36046973 -30 53 C-31.14330241 46.25451579 -32.30072181 39.27137143 -29 33 C-27.69864875 31.30824337 -26.36244796 29.64295195 -25 28 C-24.29875 26.906875 -23.5975 25.81375 -22.875 24.6875 C-22.25625 23.800625 -21.6375 22.91375 -21 22 C-20.34 22 -19.68 22 -19 22 C-18.91621094 21.39929688 -18.83242188 20.79859375 -18.74609375 20.1796875 C-17.77902467 17.35442809 -16.54943588 16.71699874 -14.0625 15.125 C-10.58119163 12.72408909 -10.58119163 12.72408909 -8.9375 8.8125 C-8.628125 7.884375 -8.31875 6.95625 -8 6 C-4.4375 4.3125 -4.4375 4.3125 -1 3 C-0.67 2.01 -0.34 1.02 0 0 Z " fill="#0C0C0D" transform="translate(53,0)"/>
<path d="M0 0 C1.65 1.32 3.3 2.64 5 4 C5.33 3.34 5.66 2.68 6 2 C6.66 2 7.32 2 8 2 C8 3.32 8 4.64 8 6 C9.32 5.67 10.64 5.34 12 5 C14.475 8.96 14.475 8.96 17 13 C16.505 10.03 16.505 10.03 16 7 C18.2477975 9.05233685 19.0022242 10.00667261 20 13 C20.66 12.34 21.32 11.68 22 11 C21.69121904 14.60244452 21.00552268 15.99345998 18.625 18.8125 C16 21 16 21 13 21 C11.97980427 21.9793879 10.97850195 22.97895449 10 24 C9.34 24 8.68 24 8 24 C8 24.66 8 25.32 8 26 C9.58467728 25.71572583 11.1677057 25.42225182 12.75 25.125 C14.07257813 24.88136719 14.07257813 24.88136719 15.421875 24.6328125 C17.89733667 24.02519918 19.82641115 23.32177701 22 22 C22.33 21.34 22.66 20.68 23 20 C23.66 20 24.32 20 25 20 C25 19.34 25 18.68 25 18 C23.35 18.66 21.7 19.32 20 20 C20.66 18.68 21.32 17.36 22 16 C23.32 16 24.64 16 26 16 C26 16.66 26 17.32 26 18 C27.32 18.33 28.64 18.66 30 19 C30.12375 19.763125 30.2475 20.52625 30.375 21.3125 C30.88102792 24.20267136 30.88102792 24.20267136 33 27 C32.505 28.485 32.505 28.485 32 30 C30.02 29.34 28.04 28.68 26 28 C26.66 29.98 27.32 31.96 28 34 C27.154375 33.67 26.30875 33.34 25.4375 33 C21.71506428 31.91710961 18.85582405 31.63624301 15 32 C14.505 32.495 14.01 32.99 13.5 33.5 C12 35 12 35 8.625 35.375 C5 35 5 35 2.625 33.4375 C-2.38683553 30.6929234 -8.62934066 32.78727047 -14 34 C-14 34.99 -14 35.98 -14 37 C-14.66 37 -15.32 37 -16 37 C-16 36.01 -16 35.02 -16 34 C-16.99 33.67 -17.98 33.34 -19 33 C-18.54857119 31.70590408 -18.08858979 30.41478941 -17.625 29.125 C-17.36976562 28.40570312 -17.11453125 27.68640625 -16.8515625 26.9453125 C-16 25 -16 25 -14 23 C-13.8453125 21.7625 -13.8453125 21.7625 -13.6875 20.5 C-13.460625 19.675 -13.23375 18.85 -13 18 C-10.4375 16.6875 -10.4375 16.6875 -8 16 C-8.33 14.68 -8.66 13.36 -9 12 C-8.67 12 -8.34 12 -8 12 C-7.67 9.69 -7.34 7.38 -7 5 C-5.91705245 7.0885417 -4.9772582 9.07012055 -4.25 11.3125 C-2.48418119 15.10901044 0.18788726 17.93143672 3 21 C2.21625 19.989375 1.4325 18.97875 0.625 17.9375 C-2.28705429 13.85069654 -4.41578095 9.7025762 -3.625 4.5625 C-3.41875 4.046875 -3.2125 3.53125 -3 3 C-2.67 3.99 -2.34 4.98 -2 6 C-1.01 6 -0.02 6 1 6 C0.67 4.02 0.34 2.04 0 0 Z " fill="#3C3C3C" transform="translate(54,3)"/>
<path d="M0 0 C0.66 0 1.32 0 2 0 C2 1.32 2 2.64 2 4 C3.32 3.34 4.64 2.68 6 2 C6.33 2.66 6.66 3.32 7 4 C9.52733235 4.65555119 9.52733235 4.65555119 12 5 C12.33 4.34 12.66 3.68 13 3 C13.33 3.33 13.66 3.66 14 4 C14.66 3.34 15.32 2.68 16 2 C15.67 3.98 15.34 5.96 15 8 C15.99 8 16.98 8 18 8 C18.33 7.01 18.66 6.02 19 5 C20.67667954 5.89822118 22.34117633 6.81921561 24 7.75 C24.928125 8.26046875 25.85625 8.7709375 26.8125 9.296875 C27.534375 9.85890625 28.25625 10.4209375 29 11 C29 12.32 29 13.64 29 15 C30.65 14.67 32.3 14.34 34 14 C34.495 15.98 34.495 15.98 35 18 C27.22964363 22.15623713 18.95497471 23.47374914 10.28515625 21.328125 C8.15703581 20.61538956 6.07263716 19.8597606 4 19 C4 19.66 4 20.32 4 21 C4.99 21.33 5.98 21.66 7 22 C7.2475 22.804375 7.495 23.60875 7.75 24.4375 C8.83490619 27.41572929 8.83490619 27.41572929 12.625 28.3125 C13.73875 28.539375 14.8525 28.76625 16 29 C16 28.67 16 28.34 16 28 C22.75 27.875 22.75 27.875 25 29 C27.98713834 28.17853696 29.57621649 27.71374065 31.1875 25 C31.455625 24.34 31.72375 23.68 32 23 C32.66 22.34 33.32 21.68 34 21 C34.89034986 23.49297962 35.21044954 24.55104099 34.0625 27 C33.5365625 27.99 33.5365625 27.99 33 29 C33 30.32 33 31.64 33 33 C28.05 33.495 28.05 33.495 23 34 C22.34 36.31 21.68 38.62 21 41 C22.485 41.495 22.485 41.495 24 42 C23.67 43.65 23.34 45.3 23 47 C22.01 46.01 21.02 45.02 20 44 C19.34 44.99 18.68 45.98 18 47 C17.38125 46.34 16.7625 45.68 16.125 45 C14.24362573 42.7715451 14.24362573 42.7715451 12 43 C11.01 41.02 10.02 39.04 9 37 C8.34 37 7.68 37 7 37 C7.061875 36.278125 7.12375 35.55625 7.1875 34.8125 C6.96160079 31.42401178 5.90014966 29.7771418 4 27 C1.51163035 23.26744552 1.45773448 21.41559065 2 17 C4.5 14.5625 4.5 14.5625 7 13 C7.66 13.33 8.32 13.66 9 14 C9.66 13.01 10.32 12.02 11 11 C10.38511719 10.96261719 9.77023438 10.92523438 9.13671875 10.88671875 C8.32847656 10.82097656 7.52023438 10.75523438 6.6875 10.6875 C5.88699219 10.62949219 5.08648437 10.57148437 4.26171875 10.51171875 C1.58387338 9.90585045 0.6221309 9.19220885 -1 7 C-1.25 3.875 -1.25 3.875 -1 1 C-0.67 0.67 -0.34 0.34 0 0 Z " fill="#D8D8D8" transform="translate(42,38)"/>
<path d="M0 0 C0.33 1.65 0.66 3.3 1 5 C1.52013672 4.29423828 1.52013672 4.29423828 2.05078125 3.57421875 C4.90682937 1.26763079 7.57972865 1.24278466 11.1875 0.8125 C12.45980469 0.65394531 13.73210937 0.49539062 15.04296875 0.33203125 C16.01878906 0.22246094 16.99460938 0.11289063 18 0 C18 0.66 18 1.32 18 2 C17.34 2.33 16.68 2.66 16 3 C16 5.64 16 8.28 16 11 C17.32 11.66 18.64 12.32 20 13 C20 14.32 20 15.64 20 17 C19.360625 17.12375 18.72125 17.2475 18.0625 17.375 C17.381875 17.58125 16.70125 17.7875 16 18 C15.67 18.66 15.34 19.32 15 20 C16.65 19.67 18.3 19.34 20 19 C17.57403312 21.95265705 15.76219014 22.50549918 12 22.875 C10.700625 23.02582031 10.700625 23.02582031 9.375 23.1796875 C7 23 7 23 5.1875 21.5078125 C4.5996875 20.76144531 4.5996875 20.76144531 4 20 C4.495 21.98 4.495 21.98 5 24 C-1.625 26 -1.625 26 -5 26 C-5 23.69 -5 21.38 -5 19 C-5.66 19.33 -6.32 19.66 -7 20 C-7 22.31 -7 24.62 -7 27 C-8.65 27 -10.3 27 -12 27 C-12 24.03 -12 21.06 -12 18 C-11.28972656 17.80664062 -10.57945313 17.61328125 -9.84765625 17.4140625 C-8.46900391 17.02347656 -8.46900391 17.02347656 -7.0625 16.625 C-6.14597656 16.36976562 -5.22945312 16.11453125 -4.28515625 15.8515625 C-1.83254913 15.23339896 -1.83254913 15.23339896 -1 13 C-1.95261719 13.144375 -2.90523437 13.28875 -3.88671875 13.4375 C-5.14097656 13.623125 -6.39523438 13.80875 -7.6875 14 C-9.54955078 14.2784375 -9.54955078 14.2784375 -11.44921875 14.5625 C-14.35886371 14.92100411 -17.07700022 15.08942256 -20 15 C-19.67 13.68 -19.34 12.36 -19 11 C-17.68 10.67 -16.36 10.34 -15 10 C-15 9.34 -15 8.68 -15 8 C-15.99 8.495 -15.99 8.495 -17 9 C-18.99960012 9.039992 -21.00047242 9.04346799 -23 9 C-23 8.34 -23 7.68 -23 7 C-24.98 7.99 -24.98 7.99 -27 9 C-27 10.65 -27 12.3 -27 14 C-25.02 13.67 -23.04 13.34 -21 13 C-21.33 13.99 -21.66 14.98 -22 16 C-25.375 16.625 -25.375 16.625 -29 17 C-31 15 -31 15 -31.375 12.125 C-31 9 -31 9 -29.4375 6.6875 C-26.32404139 4.53202866 -23.73353364 4.2871949 -20 4 C-19.67 4.99 -19.34 5.98 -19 7 C-15.535 6.505 -15.535 6.505 -12 6 C-12 7.98 -12 9.96 -12 12 C-11.01 12 -10.02 12 -9 12 C-9.33 8.04 -9.66 4.08 -10 0 C-6.7169902 -1.6415049 -3.57454967 -0.51888624 0 0 Z " fill="#378E52" transform="translate(68,87)"/>
<path d="M0 0 C0.99 0.495 0.99 0.495 2 1 C3.7890226 6.3670678 4.1135272 12.91273264 2.17578125 18.28515625 C1.48154033 19.58330934 0.75902866 20.86677688 0.0078125 22.1328125 C-1.07527401 24.13946116 -1.53793883 25.89870525 -2 28.125 C-3.21635033 33.47274716 -5.61383793 36.90876603 -9.9375 40.3125 C-12.75561787 41.86534046 -14.83172534 42.6272618 -18 43 C-17.67 43.66 -17.34 44.32 -17 45 C-15.02 44.67 -13.04 44.34 -11 44 C-11 44.66 -11 45.32 -11 46 C-12.74816858 46.50636607 -14.49862263 47.00484619 -16.25 47.5 C-17.22453125 47.7784375 -18.1990625 48.056875 -19.203125 48.34375 C-22 49 -22 49 -26 49 C-26 48.34 -26 47.68 -26 47 C-25.01 47 -24.02 47 -23 47 C-22.67 45.68 -22.34 44.36 -22 43 C-22.928125 43.495 -23.85625 43.99 -24.8125 44.5 C-28 46 -28 46 -31 46 C-31 46.99 -31 47.98 -31 49 C-30.34 49 -29.68 49 -29 49 C-29 48.34 -29 47.68 -29 47 C-28.34 47 -27.68 47 -27 47 C-27 47.99 -27 48.98 -27 50 C-27.94875 50.309375 -28.8975 50.61875 -29.875 50.9375 C-32.86080408 51.87394742 -32.86080408 51.87394742 -35 53 C-36.35869868 53.11801121 -37.72013451 53.20505253 -39.08203125 53.27734375 C-47.58671373 54.05827686 -55.74942655 56.84264501 -63.92211914 59.2097168 C-66.0957556 59.83611604 -68.27230077 60.45152617 -70.44921875 61.06640625 C-71.10355392 61.26013321 -71.7578891 61.45386017 -72.43205261 61.65345764 C-76.71803415 62.86140235 -80.55856177 63.17725646 -85 63 C-84.94827963 67.27183496 -84.85323715 71.54162389 -84.75 75.8125 C-84.73582031 77.02744141 -84.72164062 78.24238281 -84.70703125 79.49414062 C-84.67480469 80.65751953 -84.64257812 81.82089844 -84.609375 83.01953125 C-84.58842773 84.09307861 -84.56748047 85.16662598 -84.54589844 86.27270508 C-84.24571016 89.10787736 -84.24571016 89.10787736 -82.109375 90.84179688 C-79.71804274 92.15481542 -77.96029783 92.48821339 -75.25 92.6875 C-74.45078125 92.75324219 -73.6515625 92.81898437 -72.828125 92.88671875 C-72.22484375 92.92410156 -71.6215625 92.96148437 -71 93 C-71 93.33 -71 93.66 -71 94 C-81.09273402 94.62644556 -81.09273402 94.62644556 -84.625 92.1875 C-86.88319187 88.59492202 -87.09046499 85.88877331 -87 81.75 C-86.95143137 78.13384462 -87.00287505 74.58072426 -87.32421875 70.98046875 C-87.38287109 70.30854492 -87.44152344 69.63662109 -87.50195312 68.94433594 C-87.68056471 67.01251059 -87.87703425 65.08236177 -88.07421875 63.15234375 C-88 60 -88 60 -86.64453125 58.06640625 C-85 57 -85 57 -83 57 C-83 57.66 -83 58.32 -83 59 C-73.23226387 57.42185903 -63.69933149 55.55068507 -54.171875 52.8671875 C-51.45555643 52.12454868 -48.76783518 51.50986438 -46 51 C-46.61875 50.731875 -47.2375 50.46375 -47.875 50.1875 C-50 49 -50 49 -52 46 C-48.25 44.875 -48.25 44.875 -46 46 C-46 46.66 -46 47.32 -46 48 C-43.58354218 48.16687448 -43.58354218 48.16687448 -41 48 C-40.34 47.34 -39.68 46.68 -39 46 C-36.9375 46.1875 -36.9375 46.1875 -35 47 C-34.67 47.99 -34.34 48.98 -34 50 C-34 48.68 -34 47.36 -34 46 C-34.99 45.505 -34.99 45.505 -36 45 C-36 43.02 -36 41.04 -36 39 C-35.01 39.495 -35.01 39.495 -34 40 C-34 40.66 -34 41.32 -34 42 C-29.71 42 -25.42 42 -21 42 C-21 42.99 -21 43.98 -21 45 C-20.34 45 -19.68 45 -19 45 C-19.495 43.02 -19.495 43.02 -20 41 C-19.01 40.67 -18.02 40.34 -17 40 C-17 38.68 -17 37.36 -17 36 C-15.515 36.495 -15.515 36.495 -14 37 C-14 35.35 -14 33.7 -14 32 C-13.01 32 -12.02 32 -11 32 C-11.33 30.35 -11.66 28.7 -12 27 C-11.34 27.33 -10.68 27.66 -10 28 C-9.22678118 25.01758453 -8.58803797 22.02419525 -8 19 C-7.34 19 -6.68 19 -6 19 C-5.505 17.515 -5.505 17.515 -5 16 C-4.26657997 28.59037711 -4.26657997 28.59037711 -9 34 C-9.5775 34.78375 -10.155 35.5675 -10.75 36.375 C-11.1625 36.91125 -11.575 37.4475 -12 38 C-6.03068184 33.09189396 -4.51787147 28.48284008 -3 21 C-2.34 21 -1.68 21 -1 21 C0.11165232 16.5621439 0.11527763 12.23043614 0.0625 7.6875 C0.05798828 6.94693359 0.05347656 6.20636719 0.04882812 5.44335938 C0.03712175 3.62887101 0.01918898 1.81442466 0 0 Z " fill="#0C0F0C" transform="translate(99,34)"/>
<path d="M0 0 C1.875 0.1875 1.875 0.1875 4 1 C6.09242143 4.6617375 6.19324053 7.84532871 6 12 C5.01 11.67 4.02 11.34 3 11 C3.66 11.66 4.32 12.32 5 13 C4.96712417 15.72869407 4.43602229 18.2966618 4 21 C1.69 20.67 -0.62 20.34 -3 20 C-3.04125 20.9075 -3.0825 21.815 -3.125 22.75 C-4 26 -4 26 -6.875 28.25 C-7.90625 28.8275 -8.9375 29.405 -10 30 C-10.99 30.66 -11.98 31.32 -13 32 C-13.99 32 -14.98 32 -16 32 C-16 30.68 -16 29.36 -16 28 C-16.721875 27.731875 -17.44375 27.46375 -18.1875 27.1875 C-20.97590126 26.01017502 -23.44095724 24.60854116 -26 23 C-26.33 23.66 -26.66 24.32 -27 25 C-27.99 25 -28.98 25 -30 25 C-30.33 24.01 -30.66 23.02 -31 22 C-32.50057859 22 -34.00129362 22.05006468 -35.5 22.125 C-38 22 -38 22 -40 20 C-40.99 20.33 -41.98 20.66 -43 21 C-43 19.35 -43 17.7 -43 16 C-43.66 15.67 -44.32 15.34 -45 15 C-39.14205483 13.22169521 -35.0204673 12.7325332 -29 14 C-28.67 14.66 -28.34 15.32 -28 16 C-24.62535976 16.2503577 -24.62535976 16.2503577 -21 16 C-20.505 15.505 -20.01 15.01 -19.5 14.5 C-18 13 -18 13 -14.6875 12.625 C-10.79063961 13.02129089 -8.35580229 14.03562793 -5 16 C-5.495 15.21625 -5.99 14.4325 -6.5 13.625 C-8 11 -8 11 -8 9 C-8.99 8.67 -9.98 8.34 -11 8 C-9.68 8 -8.36 8 -7 8 C-6.505 8.99 -6.505 8.99 -6 10 C-3.57540213 10.83492354 -3.57540213 10.83492354 -1 11 C-0.34 10.34 0.32 9.68 1 9 C1.99 9.33 2.98 9.66 4 10 C3.525625 8.906875 3.05125 7.81375 2.5625 6.6875 C1.59812191 4.46523745 0.76833172 2.30499515 0 0 Z " fill="#4B4D4B" transform="translate(87,21)"/>
<path d="M0 0 C0.66 0 1.32 0 2 0 C1.34 2.31 0.68 4.62 0 7 C0.99 7.33 1.98 7.66 3 8 C2.67 8.99 2.34 9.98 2 11 C1.77202438 13.73289293 1.58331813 16.45042204 1.4375 19.1875 C1.39431641 19.93708984 1.35113281 20.68667969 1.30664062 21.45898438 C1.20077315 23.30578375 1.0999024 25.15286834 1 27 C1.66 27 2.32 27 3 27 C4.10844919 23.67465243 3.84454356 21.37817425 3 18 C4.32 17.67 5.64 17.34 7 17 C7.61875 18.6396875 7.61875 18.6396875 8.25 20.3125 C9.60285591 23.51015942 10.94055844 25.20653426 14 27 C12.68 27.33 11.36 27.66 10 28 C10 28.66 10 29.32 10 30 C9 31 8 32 7 33 C7 33.66 7 34.32 7 35 C7.474375 35.433125 7.94875 35.86625 8.4375 36.3125 C10.44119647 38.47649219 10.70261372 40.10048381 11 43 C10.67 43.66 10.34 44.32 10 45 C9.34 45 8.68 45 8 45 C7.67 45.99 7.34 46.98 7 48 C6 47 6 47 5.9375 44.4375 C5.958125 43.633125 5.97875 42.82875 6 42 C5.01 41.67 4.02 41.34 3 41 C3 40.34 3 39.68 3 39 C2.34 39 1.68 39 1 39 C0.67 39.66 0.34 40.32 0 41 C-0.625 38.6875 -0.625 38.6875 -1 36 C-0.34 35.01 0.32 34.02 1 33 C0.01 33 -0.98 33 -2 33 C-2 32.34 -2 31.68 -2 31 C-3.65 30.67 -5.3 30.34 -7 30 C-8.18430188 26.44709436 -8.18397858 23.19749544 -8.1875 19.5 C-8.19974609 18.82324219 -8.21199219 18.14648438 -8.22460938 17.44921875 C-8.23559396 13.73642956 -8.11344616 12.17016924 -6 9 C-5.01 9 -4.02 9 -3 9 C-2.814375 7.88625 -2.814375 7.88625 -2.625 6.75 C-2.04513299 4.19858515 -1.26291261 2.2732427 0 0 Z " fill="#262A2C" transform="translate(32,24)"/>
<path d="M0 0 C2.90482379 2.42068649 3.51360365 4.19301827 4.25 7.875 C3.91666667 9.54166667 3.58333333 11.20833333 3.25 12.875 C2.97580316 16.42676312 2.8598871 19.98912844 2.73242188 23.54882812 C2.48151622 28.87465563 2.19981393 33.92518607 -1.75 37.875 C-3.09164079 37.5768576 -4.42323492 37.23358516 -5.75 36.875 C-12.39510437 36.38177363 -18.34128562 38.05134489 -24.75 39.6875 C-31.70892624 41.41756987 -38.63782247 43.12094784 -45.6875 44.4375 C-52.04591218 45.64415322 -58.21377208 47.31673539 -64.41186523 49.16235352 C-69.19688085 50.55927551 -73.78782988 51.37151036 -78.75 51.875 C-76.05002719 48.27159953 -72.27422336 47.70907554 -68.1171875 46.71875 C-67.36591583 46.53034546 -66.61464417 46.34194092 -65.84060669 46.14782715 C-63.43774827 45.5469336 -61.03170057 44.96029648 -58.625 44.375 C-55.47530693 43.59875719 -52.32716131 42.81643901 -49.1796875 42.03125 C-48.42478531 41.84400864 -47.66988312 41.65676727 -46.8921051 41.46385193 C-42.39220706 40.33404431 -38.0151318 39.02873376 -33.63867188 37.48291016 C-30.34510052 36.42280252 -26.97037446 35.87438369 -23.5625 35.3125 C-18.7986455 34.51319555 -14.33363865 33.4137464 -9.75 31.875 C-3.38636364 31.55681818 -3.38636364 31.55681818 -0.75 32.875 C-0.75 22.975 -0.75 13.075 -0.75 2.875 C-3.51452033 1.49273984 -5.7961363 1.77974613 -8.875 1.8125 C-9.97070312 1.82152344 -11.06640625 1.83054687 -12.1953125 1.83984375 C-13.45988281 1.85724609 -13.45988281 1.85724609 -14.75 1.875 C-10.77519983 -2.09980017 -5.0547795 -2.06786434 0 0 Z " fill="#090D09" transform="translate(108.75,76.125)"/>
<path d="M0 0 C1.32 0 2.64 0 4 0 C4 0.66 4 1.32 4 2 C5.32 2.33 6.64 2.66 8 3 C8.12375 3.763125 8.2475 4.52625 8.375 5.3125 C8.88102792 8.20267136 8.88102792 8.20267136 11 11 C10.67 11.99 10.34 12.98 10 14 C8.02 13.34 6.04 12.68 4 12 C4.66 13.98 5.32 15.96 6 18 C5.154375 17.67 4.30875 17.34 3.4375 17 C-0.28493572 15.91710961 -3.14417595 15.63624301 -7 16 C-7.495 16.495 -7.99 16.99 -8.5 17.5 C-10 19 -10 19 -13.375 19.375 C-17 19 -17 19 -19.375 17.4375 C-24.24551897 14.77031104 -29.83801178 16.64219811 -35 18 C-34.02720973 14.40067601 -33.37298133 13.22703211 -30.125 11.25 C-25.98721692 9.59488677 -23.2789109 8.7905968 -18.875 9.5625 C-12.40004783 10.39728722 -5.66713654 9.36525326 0 6 C0.33 5.34 0.66 4.68 1 4 C1.66 4 2.32 4 3 4 C3 3.34 3 2.68 3 2 C1.35 2.66 -0.3 3.32 -2 4 C-1.34 2.68 -0.68 1.36 0 0 Z " fill="#C6C6C6" transform="translate(76,19)"/>
<path d="M0 0 C1.32 0.33 2.64 0.66 4 1 C3.01 1.495 3.01 1.495 2 2 C1.83318891 4.91652174 1.83318891 4.91652174 2 8 C4.49505962 10.49505962 5.67328888 10.35948376 9.125 10.625 C10.03507812 10.69976562 10.94515625 10.77453125 11.8828125 10.8515625 C12.93082031 10.92503906 12.93082031 10.92503906 14 11 C13.34 12.98 12.68 14.96 12 17 C11.01 16.34 10.02 15.68 9 15 C6.86124923 16.01760473 6.86124923 16.01760473 5 18 C4.1816047 22.63757337 4.96604436 25.33662726 7.4375 29.1875 C7.88996094 29.82042969 8.34242187 30.45335938 8.80859375 31.10546875 C10.05928692 33.09427592 10.48361968 34.72700447 11 37 C11.99414593 38.67016516 12.9935725 40.33720673 14 42 C14 42.66 14 43.32 14 44 C15.485 43.505 15.485 43.505 17 43 C16.67 43.99 16.34 44.98 16 46 C14.515 45.505 14.515 45.505 13 45 C13 44.34 13 43.68 13 43 C12.1028125 43.2475 12.1028125 43.2475 11.1875 43.5 C9 44 9 44 6 44 C3.8125 42.125 3.8125 42.125 2 40 C2 39.34 2 38.68 2 38 C1.21625 37.7525 0.4325 37.505 -0.375 37.25 C-3.46879902 35.77676237 -3.56554536 34.95856269 -5 32 C-5.78761719 31.59007813 -6.57523438 31.18015625 -7.38671875 30.7578125 C-10.72503496 28.51230832 -11.40915451 26.54138944 -12.8125 22.8125 C-13.23144531 21.72582031 -13.65039062 20.63914062 -14.08203125 19.51953125 C-14.38496094 18.68808594 -14.68789063 17.85664062 -15 17 C-13.35 17.33 -11.7 17.66 -10 18 C-10 18.66 -10 19.32 -10 20 C-9.01 20 -8.02 20 -7 20 C-7 22 -7 24 -7 26 C-6.34 26 -5.68 26 -5 26 C-2.6716065 27.76957906 -2.04711194 28.81583516 -1.3125 31.6875 C-1.1578125 32.8321875 -1.1578125 32.8321875 -1 34 C-0.67 33.34 -0.34 32.68 0 32 C0.66 32 1.32 32 2 32 C1.67 29.03 1.34 26.06 1 23 C0.01 22.67 -0.98 22.34 -2 22 C-1.6875 20.0625 -1.6875 20.0625 -1 18 C-0.01 17.67 0.98 17.34 2 17 C2 16.34 2 15.68 2 15 C2.99 14.67 3.98 14.34 5 14 C4.195625 13.484375 3.39125 12.96875 2.5625 12.4375 C-0.70013964 9.33401351 -0.8391431 7.42356466 -1 3 C-0.67 2.01 -0.34 1.02 0 0 Z " fill="#2E2E2E" transform="translate(40,37)"/>
<path d="M0 0 C1.65 1.32 3.3 2.64 5 4 C5.33 3.34 5.66 2.68 6 2 C6.66 2 7.32 2 8 2 C8 3.32 8 4.64 8 6 C9.32 5.67 10.64 5.34 12 5 C13.65 7.64 15.3 10.28 17 13 C16.67 11.02 16.34 9.04 16 7 C18.2477975 9.05233685 19.0022242 10.00667261 20 13 C20.66 12.34 21.32 11.68 22 11 C21.69918829 14.50946994 21.0180963 15.97788231 18.75 18.75 C15.97788231 21.0180963 14.50946994 21.69918829 11 22 C10.67 21.34 10.34 20.68 10 20 C9.34 20 8.68 20 8 20 C7.67 18.35 7.34 16.7 7 15 C6.01 15 5.02 15 4 15 C4 14.34 4 13.68 4 13 C3.34 13 2.68 13 2 13 C2.99 14.485 2.99 14.485 4 16 C3.625 18.1875 3.625 18.1875 3 20 C-0.86557324 15.82924993 -2.93543834 12.74863294 -4 7 C-3.625 4.5625 -3.625 4.5625 -3 3 C-2.67 3.99 -2.34 4.98 -2 6 C-1.01 6 -0.02 6 1 6 C0.67 4.02 0.34 2.04 0 0 Z " fill="#747474" transform="translate(54,3)"/>
<path d="M0 0 C0.33 0 0.66 0 1 0 C1.19551338 1.60320974 1.38111983 3.20762986 1.5625 4.8125 C1.66691406 5.70582031 1.77132812 6.59914063 1.87890625 7.51953125 C2 10 2 10 1 13 C-1.5625 14.1875 -1.5625 14.1875 -4 15 C-3.87625 16.051875 -3.87625 16.051875 -3.75 17.125 C-4.08136312 20.93567589 -5.82679328 22.90482679 -8 26 C-8.76939681 28.22602615 -8.76939681 28.22602615 -9 30 C-8.34 30.33 -7.68 30.66 -7 31 C-6.375 33.0625 -6.375 33.0625 -6 35 C-6.99 35.66 -7.98 36.32 -9 37 C-8.79375 37.5775 -8.5875 38.155 -8.375 38.75 C-7.91338739 41.51967567 -8.57055055 42.64561267 -10 45 C-10.66 45 -11.32 45 -12 45 C-12.02697137 42.39576408 -12.04682489 39.79180756 -12.0625 37.1875 C-12.07087891 36.44951172 -12.07925781 35.71152344 -12.08789062 34.95117188 C-12.10259828 31.70077932 -12.03531702 29.10595105 -11 26 C-11.66 25.67 -12.32 25.34 -13 25 C-12.125 20.25 -12.125 20.25 -11 18 C-11.66 18 -12.32 18 -13 18 C-13.18175781 18.63808594 -13.36351562 19.27617187 -13.55078125 19.93359375 C-13.92783203 21.17302734 -13.92783203 21.17302734 -14.3125 22.4375 C-14.55613281 23.26121094 -14.79976562 24.08492187 -15.05078125 24.93359375 C-15.36402344 25.61550781 -15.67726563 26.29742187 -16 27 C-16.99 27.33 -17.98 27.66 -19 28 C-20.1482685 30.296537 -20.11561175 31.58313167 -20.09765625 34.1328125 C-20.09443359 34.93847656 -20.09121094 35.74414062 -20.08789062 36.57421875 C-20.07951172 37.41597656 -20.07113281 38.25773437 -20.0625 39.125 C-20.05798828 39.97449219 -20.05347656 40.82398438 -20.04882812 41.69921875 C-20.03702874 43.79950909 -20.01909306 45.8997633 -20 48 C-20.66 47.67 -21.32 47.34 -22 47 C-23.16141817 40.26377459 -24.29558757 33.26161638 -21 27 C-19.69864875 25.30824337 -18.36244796 23.64295195 -17 22 C-16.29875 20.906875 -15.5975 19.81375 -14.875 18.6875 C-14.25625 17.800625 -13.6375 16.91375 -13 16 C-12.34 16 -11.68 16 -11 16 C-10.91621094 15.39929687 -10.83242188 14.79859375 -10.74609375 14.1796875 C-9.77902467 11.35442809 -8.54943588 10.71699874 -6.0625 9.125 C-2.34624268 6.51896624 -0.87481227 4.59276444 0 0 Z " fill="#090A0A" transform="translate(45,6)"/>
<path d="M0 0 C0.66 0 1.32 0 2 0 C2 1.32 2 2.64 2 4 C3.32 3.34 4.64 2.68 6 2 C6.33 2.66 6.66 3.32 7 4 C9.52733235 4.65555119 9.52733235 4.65555119 12 5 C12.33 4.34 12.66 3.68 13 3 C13.33 3.33 13.66 3.66 14 4 C14.66 3.34 15.32 2.68 16 2 C15.67 3.98 15.34 5.96 15 8 C15.99 8 16.98 8 18 8 C18.33 7.01 18.66 6.02 19 5 C22.3 6.98 25.6 8.96 29 11 C28.34 12.65 27.68 14.3 27 16 C24.375 16.8125 24.375 16.8125 22 17 C21.34 16.01 20.68 15.02 20 14 C19.01 15.485 19.01 15.485 18 17 C16.02 16.67 14.04 16.34 12 16 C12 16.66 12 17.32 12 18 C10.02 17.67 8.04 17.34 6 17 C5.67 16.01 5.34 15.02 5 14 C5.639375 13.855625 6.27875 13.71125 6.9375 13.5625 C8.97545146 13.18992819 8.97545146 13.18992819 10 12 C10.33 11.67 10.66 11.34 11 11 C10.38511719 10.96261719 9.77023438 10.92523438 9.13671875 10.88671875 C8.32847656 10.82097656 7.52023438 10.75523438 6.6875 10.6875 C5.88699219 10.62949219 5.08648437 10.57148437 4.26171875 10.51171875 C1.58387338 9.90585045 0.6221309 9.19220885 -1 7 C-1.25 3.875 -1.25 3.875 -1 1 C-0.67 0.67 -0.34 0.34 0 0 Z " fill="#C8C7C5" transform="translate(42,38)"/>
<path d="M0 0 C1.4606285 2.64738916 2 3.89448334 2 7 C1.401875 6.690625 0.80375 6.38125 0.1875 6.0625 C-2.08956772 4.89790296 -2.08956772 4.89790296 -5 4 C-4.505 5.485 -4.505 5.485 -4 7 C-3.73913043 15.2173913 -3.73913043 15.2173913 -5 19 C-5.66 19 -6.32 19 -7 19 C-7 19.99 -7 20.98 -7 22 C-7.66 22 -8.32 22 -9 22 C-8.4118332 18.97514219 -7.75929472 15.98613386 -7 13 C-7.44730469 13.42152344 -7.89460938 13.84304687 -8.35546875 14.27734375 C-14.3602812 19.71880492 -14.3602812 19.71880492 -19 20 C-19 19.67 -19 19.34 -19 19 C-22.04386724 18.91773332 -24.07175348 19.02391783 -27 20 C-31.18398311 18.1172076 -32.81960025 15.94548527 -35 12 C-35.66 11.67 -36.32 11.34 -37 11 C-37 10.34 -37 9.68 -37 9 C-35.741875 9.33 -34.48375 9.66 -33.1875 10 C-23.56367911 12.09344461 -15.30136096 11.02249254 -6 8 C-6.66 6.02 -7.32 4.04 -8 2 C-5.36 1.34 -2.72 0.68 0 0 Z " fill="#6E6E6E" transform="translate(83,48)"/>
<path d="M0 0 C1.32 0 2.64 0 4 0 C4.61875 1.6396875 4.61875 1.6396875 5.25 3.3125 C6.60285591 6.51015942 7.94055844 8.20653426 11 10 C9.68 10.33 8.36 10.66 7 11 C7 11.66 7 12.32 7 13 C6 14 5 15 4 16 C4 16.66 4 17.32 4 18 C4.7115625 18.6496875 4.7115625 18.6496875 5.4375 19.3125 C7.44119647 21.47649219 7.70261372 23.10048381 8 26 C7.67 26.66 7.34 27.32 7 28 C6.34 28 5.68 28 5 28 C4.67 28.99 4.34 29.98 4 31 C3 30 3 30 2.9375 27.4375 C2.958125 26.633125 2.97875 25.82875 3 25 C2.01 24.67 1.02 24.34 0 24 C0 23.34 0 22.68 0 22 C-0.66 22 -1.32 22 -2 22 C-2.33 22.66 -2.66 23.32 -3 24 C-3.625 21.6875 -3.625 21.6875 -4 19 C-3.34 18.01 -2.68 17.02 -2 16 C-2.99 15.67 -3.98 15.34 -5 15 C-4.071875 13.88625 -4.071875 13.88625 -3.125 12.75 C-0.64448826 9.5881665 -0.64448826 9.5881665 1 6 C0.6878236 3.35367713 0.6878236 3.35367713 0 1 C0 0.67 0 0.34 0 0 Z " fill="#868787" transform="translate(35,41)"/>
<path d="M0 0 C0.99 0 1.98 0 3 0 C3 0.66 3 1.32 3 2 C5.64 1.67 8.28 1.34 11 1 C11 1.66 11 2.32 11 3 C10.360625 3.268125 9.72125 3.53625 9.0625 3.8125 C6.66868314 4.88667752 6.66868314 4.88667752 6 8 C6.70125 7.855625 7.4025 7.71125 8.125 7.5625 C13.86719815 6.43902645 19.15220515 5.7793285 25 6 C24.67 6.99 24.34 7.98 24 9 C20.3962102 10.52160014 17.94779314 11 14 11 C14 11.66 14 12.32 14 13 C12.72125 12.95875 11.4425 12.9175 10.125 12.875 C7.98128508 12.75787127 7.98128508 12.75787127 6 13 C3.73980102 14.82537104 3.73980102 14.82537104 3.8125 17.5 C3.84101023 19.99790956 3.84101023 19.99790956 5 22 C4.01 22.33 3.02 22.66 2 23 C0.87743869 20.75487738 0.86586238 19.48543351 0.875 17 C0.87242188 16.29875 0.86984375 15.5975 0.8671875 14.875 C1 13 1 13 2 11 C1.01 10.67 0.02 10.34 -1 10 C-0.195625 9.71125 0.60875 9.4225 1.4375 9.125 C4.1326468 8.26737432 4.1326468 8.26737432 5 6 C4.01 6.66 3.02 7.32 2 8 C-0.1875 7.625 -0.1875 7.625 -2 7 C-2.125 4.625 -2.125 4.625 -2 2 C-1.34 1.34 -0.68 0.68 0 0 Z " fill="#238340" transform="translate(42,94)"/>
<path d="M0 0 C1.32 0 2.64 0 4 0 C4.33 3.63 4.66 7.26 5 11 C-5.04464286 13.14285714 -5.04464286 13.14285714 -10 13 C-9.67 11.68 -9.34 10.36 -9 9 C-7.68 8.67 -6.36 8.34 -5 8 C-5 7.34 -5 6.68 -5 6 C-5.99 6.495 -5.99 6.495 -7 7 C-8.99960012 7.039992 -11.00047242 7.04346799 -13 7 C-13 6.34 -13 5.68 -13 5 C-14.98 5.99 -14.98 5.99 -17 7 C-17 8.65 -17 10.3 -17 12 C-15.02 11.67 -13.04 11.34 -11 11 C-11.33 11.99 -11.66 12.98 -12 14 C-15.375 14.625 -15.375 14.625 -19 15 C-21 13 -21 13 -21.375 10.125 C-21 7 -21 7 -19.4375 4.6875 C-16.32404139 2.53202866 -13.73353364 2.2871949 -10 2 C-9.67 2.99 -9.34 3.98 -9 5 C-5.535 4.505 -5.535 4.505 -2 4 C-2 5.98 -2 7.96 -2 10 C-1.01 10 -0.02 10 1 10 C0.505 5.05 0.505 5.05 0 0 Z " fill="#E9F2EC" transform="translate(58,89)"/>
<path d="M0 0 C-1.32 0.33 -2.64 0.66 -4 1 C-3.67 1.66 -3.34 2.32 -3 3 C-2.76666667 9.53333333 -2.76666667 9.53333333 -4 12 C-2.68 12 -1.36 12 0 12 C1.46745575 14.93491151 0.9203603 17.67817814 0.7421875 20.90625 C0.82726562 21.5971875 0.91234375 22.288125 1 23 C1.99 23.66 2.98 24.32 4 25 C1.03 25.33 -1.94 25.66 -5 26 C-5 23.69 -5 21.38 -5 19 C-5.66 19.33 -6.32 19.66 -7 20 C-7 22.31 -7 24.62 -7 27 C-8.65 27 -10.3 27 -12 27 C-12 24.03 -12 21.06 -12 18 C-11.28972656 17.80664062 -10.57945313 17.61328125 -9.84765625 17.4140625 C-8.46900391 17.02347656 -8.46900391 17.02347656 -7.0625 16.625 C-6.14597656 16.36976562 -5.22945312 16.11453125 -4.28515625 15.8515625 C-1.83254913 15.23339896 -1.83254913 15.23339896 -1 13 C-2.32 13 -3.64 13 -5 13 C-6.20272819 10.59454362 -6.10071472 9.05003047 -6.0625 6.375 C-6.05347656 5.55773437 -6.04445313 4.74046875 -6.03515625 3.8984375 C-6.02355469 3.27195312 -6.01195312 2.64546875 -6 2 C-7.32 2 -8.64 2 -10 2 C-10 1.34 -10 0.68 -10 0 C-6.7169902 -1.6415049 -3.57454967 -0.51888624 0 0 Z " fill="#3B9055" transform="translate(68,87)"/>
<path d="M0 0 C0 4.29 0 8.58 0 13 C-1.65 13 -3.3 13 -5 13 C-5 11.35 -5 9.7 -5 8 C-5.66 9.98 -6.32 11.96 -7 14 C-7.99 14 -8.98 14 -10 14 C-10.66 12.02 -11.32 10.04 -12 8 C-12 10.31 -12 12.62 -12 15 C-13.65 15.33 -15.3 15.66 -17 16 C-17 11.71 -17 7.42 -17 3 C-13.535 2.505 -13.535 2.505 -10 2 C-9.34 3.65 -8.68 5.3 -8 7 C-7.67 5.02 -7.34 3.04 -7 1 C-4 0 -4 0 0 0 Z " fill="#DFEDE4" transform="translate(44,105)"/>
<path d="M0 0 C0.33 0.99 0.66 1.98 1 3 C2.65 2.67 4.3 2.34 6 2 C6.33 3.32 6.66 4.64 7 6 C-1.13702835 10.352364 -9.70566071 11.43575303 -18.6875 9 C-19.450625 8.67 -20.21375 8.34 -21 8 C-21 7.34 -21 6.68 -21 6 C-21.99 6 -22.98 6 -24 6 C-24 5.01 -24 4.02 -24 3 C-23.34 3 -22.68 3 -22 3 C-22 3.66 -22 4.32 -22 5 C-19.03 5.495 -19.03 5.495 -16 6 C-16 5.34 -16 4.68 -16 4 C-14.6078125 4.0928125 -14.6078125 4.0928125 -13.1875 4.1875 C-10.01604897 4.30894264 -10.01604897 4.30894264 -8.125 2.5 C-7.75375 2.005 -7.3825 1.51 -7 1 C-6.67 1.99 -6.34 2.98 -6 4 C-4.35 3.67 -2.7 3.34 -1 3 C-0.67 2.01 -0.34 1.02 0 0 Z " fill="#F5F5F4" transform="translate(70,50)"/>
<path d="M0 0 C4 1 4 1 6 4 C5.38001259 6.01495907 4.69799419 8.01071657 4 10 C2.50772408 17.44712438 2.50772408 17.44712438 2 25 C2 25.66 2 26.32 2 27 C1.34 27 0.68 27 0 27 C0 26.01 0 25.02 0 24 C-4.29 24 -8.58 24 -13 24 C-13.33 22.68 -13.66 21.36 -14 20 C-12.33657163 18.33657163 -10.2174291 18.63951903 -7.9375 18.4375 C-6.55884766 18.31181641 -6.55884766 18.31181641 -5.15234375 18.18359375 C-4.44207031 18.12300781 -3.73179688 18.06242187 -3 18 C-2.67 17.01 -2.34 16.02 -2 15 C-1.34 15 -0.68 15 0 15 C0 10.05 0 5.1 0 0 Z " fill="#2F2F2F" transform="translate(78,52)"/>
<path d="M0 0 C1.875 0.1875 1.875 0.1875 4 1 C6.09242143 4.6617375 6.19324053 7.84532871 6 12 C5.01 11.67 4.02 11.34 3 11 C3.66 11.66 4.32 12.32 5 13 C4.96712417 15.72869407 4.43602229 18.2966618 4 21 C1.69 20.67 -0.62 20.34 -3 20 C-3.12375 20.94875 -3.2475 21.8975 -3.375 22.875 C-4 26 -4 26 -6 28 C-6.99 27.67 -7.98 27.34 -9 27 C-8.01 26.34 -7.02 25.68 -6 25 C-5.08743691 21.52894948 -5.08743691 21.52894948 -5 18 C-5.66 17.34 -6.32 16.68 -7 16 C-6.34 16 -5.68 16 -5 16 C-5.495 15.21625 -5.99 14.4325 -6.5 13.625 C-8 11 -8 11 -8 9 C-8.99 8.67 -9.98 8.34 -11 8 C-9.68 8 -8.36 8 -7 8 C-6.67 8.66 -6.34 9.32 -6 10 C-3.57540213 10.83492354 -3.57540213 10.83492354 -1 11 C-0.34 10.34 0.32 9.68 1 9 C1.99 9.33 2.98 9.66 4 10 C3.525625 8.906875 3.05125 7.81375 2.5625 6.6875 C1.59812191 4.46523745 0.76833172 2.30499515 0 0 Z " fill="#242728" transform="translate(87,21)"/>
<path d="M0 0 C3.3 1.65 6.6 3.3 10 5 C9.01 6.485 9.01 6.485 8 8 C8.66 9.32 9.32 10.64 10 12 C10.66 12 11.32 12 12 12 C12.66 11.01 13.32 10.02 14 9 C14 10.65 14 12.3 14 14 C14.99 14.33 15.98 14.66 17 15 C16.67 16.65 16.34 18.3 16 20 C15.01 19.01 14.02 18.02 13 17 C12.34 17.99 11.68 18.98 11 20 C10.38125 19.34 9.7625 18.68 9.125 18 C7.24362573 15.7715451 7.24362573 15.7715451 5 16 C4.01 14.02 3.02 12.04 2 10 C1.34 10 0.68 10 0 10 C0.020625 9.21625 0.04125 8.4325 0.0625 7.625 C0.18684063 5.01885039 0.18684063 5.01885039 -1 3 C-0.67 2.01 -0.34 1.02 0 0 Z " fill="#CCCCCC" transform="translate(49,65)"/>
<path d="M0 0 C2.625 0.9375 2.625 0.9375 5 2 C9.33669447 3.44556482 12.48237891 2.49041499 16.7734375 1.4140625 C19.69992694 0.86983815 22.13709991 1.26592305 25 2 C25 2.33 25 2.66 25 3 C24.07767578 3.16435547 24.07767578 3.16435547 23.13671875 3.33203125 C22.32847656 3.49058594 21.52023438 3.64914063 20.6875 3.8125 C19.88699219 3.96332031 19.08648437 4.11414062 18.26171875 4.26953125 C15.72973921 5.0872863 14.82602482 6.13373221 13 8 C9.17040409 8.42551066 6.89210905 8.58691385 3.625 6.4375 C-1.24551897 3.77031104 -6.83801178 5.64219811 -12 7 C-9.72612483 0.35328795 -6.83181978 -0.47115998 0 0 Z " fill="#D6D6D3" transform="translate(53,30)"/>
<path d="M0 0 C1.32 0 2.64 0 4 0 C4.33 3.63 4.66 7.26 5 11 C5.99 11 6.98 11 8 11 C8 12.98 8 14.96 8 17 C8.66 17 9.32 17 10 17 C10 15.68 10 14.36 10 13 C11.65 12.67 13.3 12.34 15 12 C14.62875 12.9075 14.2575 13.815 13.875 14.75 C12.69640701 17.88097015 12.69640701 17.88097015 13.875 20.375 C14.24625 20.91125 14.6175 21.4475 15 22 C11 22 11 22 9.25 20.5 C8.8375 20.005 8.425 19.51 8 19 C8.33 20.32 8.66 21.64 9 23 C7.35 23 5.7 23 4 23 C4 19.04 4 15.08 4 11 C2.68 11 1.36 11 0 11 C0 7.37 0 3.74 0 0 Z " fill="#EBF3EE" transform="translate(64,88)"/>
<path d="M0 0 C2.475 0.495 2.475 0.495 5 1 C5 1.66 5 2.32 5 3 C5.99 3 6.98 3 8 3 C8 5 8 7 8 9 C8.66 9 9.32 9 10 9 C12.3283935 10.76957906 12.95288806 11.81583516 13.6875 14.6875 C13.790625 15.450625 13.89375 16.21375 14 17 C14.66 16.34 15.32 15.68 16 15 C19.93846154 19.30769231 19.93846154 19.30769231 20.25 22.8125 C20.1675 23.534375 20.085 24.25625 20 25 C20.66 25.33 21.32 25.66 22 26 C21.01 26 20.02 26 19 26 C18.773125 25.21625 18.54625 24.4325 18.3125 23.625 C16.65618946 20.31237892 15.35961714 20.25985643 12 19 C11.3162955 17.67532254 10.65035814 16.34136367 10 15 C9.21238281 14.59007813 8.42476562 14.18015625 7.61328125 13.7578125 C4.27496504 11.51230832 3.59084549 9.54138944 2.1875 5.8125 C1.55908203 4.18248047 1.55908203 4.18248047 0.91796875 2.51953125 C0.61503906 1.68808594 0.31210937 0.85664062 0 0 Z " fill="#100F0F" transform="translate(25,54)"/>
<path d="M0 0 C1.32 0.66 2.64 1.32 4 2 C3.67 4.31 3.34 6.62 3 9 C2.34 8.67 1.68 8.34 1 8 C1 9.32 1 10.64 1 12 C0.01 12 -0.98 12 -2 12 C-2 13.65 -2 15.3 -2 17 C-2.99 17 -3.98 17 -5 17 C-5.33 17.66 -5.66 18.32 -6 19 C-5.34 19.33 -4.68 19.66 -4 20 C-5 21 -5 21 -8.5625 21.0625 C-9.696875 21.041875 -10.83125 21.02125 -12 21 C-12 20.67 -12 20.34 -12 20 C-10.35 20 -8.7 20 -7 20 C-7.061875 18.453125 -7.061875 18.453125 -7.125 16.875 C-6.91178049 10.26519507 -4.70783551 4.70783551 0 0 Z " fill="#747476" transform="translate(87,54)"/>
<path d="M0 0 C1.3271261 3.9813783 1.06915913 7.85045227 1 12 C0.01 12 -0.98 12 -2 12 C-2 10.02 -2 8.04 -2 6 C-4.64 6.66 -7.28 7.32 -10 8 C-10 6.68 -10 5.36 -10 4 C-14.455 5.485 -14.455 5.485 -19 7 C-19.66 6.34 -20.32 5.68 -21 5 C-18.9170757 4.35284867 -16.83364461 3.70732834 -14.75 3.0625 C-13.58984375 2.70285156 -12.4296875 2.34320313 -11.234375 1.97265625 C-7.16661299 0.74937999 -4.27929883 0 0 0 Z " fill="#278343" transform="translate(58,87)"/>
<path d="M0 0 C1.125 1.75 1.125 1.75 2 4 C1.125 6 1.125 6 0 8 C0 9.32 0 10.64 0 12 C-0.67546875 12.00257812 -1.3509375 12.00515625 -2.046875 12.0078125 C-7.20541043 12.05071705 -7.20541043 12.05071705 -11.5546875 14.40234375 C-12.77834208 16.21866453 -12.77834208 16.21866453 -14 19 C-14.99 18.67 -15.98 18.34 -17 18 C-18.1875 15.4375 -18.1875 15.4375 -19 13 C-15.99559979 10.99706653 -14.29006055 10.50728374 -10.8125 9.875 C-9.91144531 9.70742187 -9.01039062 9.53984375 -8.08203125 9.3671875 C-7.39496094 9.24601562 -6.70789063 9.12484375 -6 9 C-5.67 8.01 -5.34 7.02 -5 6 C-4.34 6 -3.68 6 -3 6 C-2.690625 5.38125 -2.38125 4.7625 -2.0625 4.125 C-1.375 2.75 -0.6875 1.375 0 0 Z " fill="#D0D0D0" transform="translate(75,59)"/>
<path d="M0 0 C1.32 0 2.64 0 4 0 C4 0.66 4 1.32 4 2 C5.32 2.33 6.64 2.66 8 3 C8.12375 3.763125 8.2475 4.52625 8.375 5.3125 C8.88102792 8.20267136 8.88102792 8.20267136 11 11 C10.67 11.99 10.34 12.98 10 14 C8.02 13.34 6.04 12.68 4 12 C4 11.34 4 10.68 4 10 C1.36 10.33 -1.28 10.66 -4 11 C-4 10.01 -4 9.02 -4 8 C-3.360625 7.71125 -2.72125 7.4225 -2.0625 7.125 C0.15206079 6.17176549 0.15206079 6.17176549 1 4 C1.66 4 2.32 4 3 4 C3 3.34 3 2.68 3 2 C1.35 2.66 -0.3 3.32 -2 4 C-1.34 2.68 -0.68 1.36 0 0 Z " fill="#676767" transform="translate(76,19)"/>
<path d="M0 0 C3.3 1.98 6.6 3.96 10 6 C9.34 7.65 8.68 9.3 8 11 C5.375 11.8125 5.375 11.8125 3 12 C2.34 11.01 1.68 10.02 1 9 C0.34 9.66 -0.32 10.32 -1 11 C-1 10.01 -1 9.02 -1 8 C-1.66 8 -2.32 8 -3 8 C-3 7.34 -3 6.68 -3 6 C-3.99 5.67 -4.98 5.34 -6 5 C-5.195625 4.731875 -4.39125 4.46375 -3.5625 4.1875 C-2.716875 3.795625 -1.87125 3.40375 -1 3 C-0.67 2.01 -0.34 1.02 0 0 Z " fill="#CECECB" transform="translate(61,43)"/>
<path d="M0 0 C-0.639375 1.0725 -1.27875 2.145 -1.9375 3.25 C-3.40601273 5.80822182 -4.52854542 8.05340886 -5 11 C-4.34 11.33 -3.68 11.66 -3 12 C-2.375 14.0625 -2.375 14.0625 -2 16 C-2.99 16.66 -3.98 17.32 -5 18 C-4.690625 18.86625 -4.690625 18.86625 -4.375 19.75 C-3.91338739 22.51967567 -4.57055055 23.64561267 -6 26 C-6.66 26 -7.32 26 -8 26 C-8.02697137 23.39576408 -8.04682489 20.79180756 -8.0625 18.1875 C-8.07087891 17.44951172 -8.07925781 16.71152344 -8.08789062 15.95117188 C-8.10259828 12.70077932 -8.03531702 10.10595105 -7 7 C-7.66 6.67 -8.32 6.34 -9 6 C-8.625 3.5625 -8.625 3.5625 -8 1 C-5.29120665 -0.35439668 -2.99066732 -0.06501451 0 0 Z " fill="#171718" transform="translate(41,25)"/>
<path d="M0 0 C0.66 0 1.32 0 2 0 C1.79503906 0.66386719 1.59007812 1.32773437 1.37890625 2.01171875 C1.10949219 2.89472656 0.84007812 3.77773438 0.5625 4.6875 C0.29566406 5.55761719 0.02882813 6.42773438 -0.24609375 7.32421875 C-0.96344529 9.87025921 -1.517541 12.4003423 -2 15 C-3.32 15.33 -4.64 15.66 -6 16 C-4.68 16 -3.36 16 -2 16 C-2 17.32 -2 18.64 -2 20 C-3.32 20 -4.64 20 -6 20 C-6 22.97 -6 25.94 -6 29 C-8.48319402 26.51680598 -8.26011201 25.03333953 -8.2734375 21.63867188 C-8.26570313 20.95353516 -8.25796875 20.26839844 -8.25 19.5625 C-8.25773437 18.88123047 -8.26546875 18.19996094 -8.2734375 17.49804688 C-8.25889434 13.78590558 -8.10940418 12.16410628 -6 9 C-5.01 9 -4.02 9 -3 9 C-2.814375 7.88625 -2.814375 7.88625 -2.625 6.75 C-2.04513299 4.19858515 -1.26291261 2.2732427 0 0 Z " fill="#6A6E71" transform="translate(32,24)"/>
<path d="M0 0 C0.99 0.495 0.99 0.495 2 1 C2 1.66 2 2.32 2 3 C2.886875 3.2475 3.77375 3.495 4.6875 3.75 C8.10427135 5.03934768 10.2797748 6.59980129 13 9 C12.67 10.32 12.34 11.64 12 13 C10.68 12.67 9.36 12.34 8 12 C8 11.34 8 10.68 8 10 C7.34 10 6.68 10 6 10 C6.99 11.485 6.99 11.485 8 13 C7.625 15.1875 7.625 15.1875 7 17 C2.10740404 11.72114647 0 7.41270735 0 0 Z " fill="#A3A3A3" transform="translate(50,6)"/>
<path d="M0 0 C0.99 0.33 1.98 0.66 3 1 C2.01 1.495 2.01 1.495 1 2 C1 2.99 1 3.98 1 5 C1.99 4.67 2.98 4.34 4 4 C4 4.66 4 5.32 4 6 C3.34 6.66 2.68 7.32 2 8 C1.67 8.66 1.34 9.32 1 10 C-1.65234375 10.88671875 -1.65234375 10.88671875 -4.9375 11.6875 C-6.01902344 11.95949219 -7.10054688 12.23148438 -8.21484375 12.51171875 C-11 13 -11 13 -13 12 C-13.33 12.66 -13.66 13.32 -14 14 C-13.67 12.35 -13.34 10.7 -13 9 C-12.01 9 -11.02 9 -10 9 C-8.29467677 7.05990478 -8.29467677 7.05990478 -7 5 C-6.67 5.66 -6.34 6.32 -6 7 C-4.02 4.69 -2.04 2.38 0 0 Z " fill="#4A4A4A" transform="translate(75,17)"/>
<path d="M0 0 C0.66 0 1.32 0 2 0 C2 1.32 2 2.64 2 4 C3.32 3.67 4.64 3.34 6 3 C7.65 5.64 9.3 8.28 11 11 C10.67 9.02 10.34 7.04 10 5 C12.2477975 7.05233685 13.0022242 8.00667261 14 11 C14.66 10.34 15.32 9.68 16 9 C15.875 11.25 15.875 11.25 15 14 C11.9375 16.3125 11.9375 16.3125 9 18 C8.67 15.69 8.34 13.38 8 11 C7.01 11.66 6.02 12.32 5 13 C4.15930585 11.39967863 3.32768495 9.79458829 2.5 8.1875 C1.80390625 6.84751953 1.80390625 6.84751953 1.09375 5.48046875 C0 3 0 3 0 0 Z " fill="#B7B7B7" transform="translate(60,5)"/>
<path d="M0 0 C0.33 0.66 0.66 1.32 1 2 C0.34 2 -0.32 2 -1 2 C-1.2475 2.66 -1.495 3.32 -1.75 4 C-3.31817045 7.76360907 -5.14505046 11.3711424 -7 15 C-7.66 15 -8.32 15 -9 15 C-9 14.01 -9 13.02 -9 12 C-9.99 11.67 -10.98 11.34 -12 11 C-11.57316368 9.72554546 -11.13302798 8.45554118 -10.6875 7.1875 C-10.44386719 6.47980469 -10.20023438 5.77210937 -9.94921875 5.04296875 C-7.64141051 0.07595759 -5.30778079 -0.35385205 0 0 Z " fill="#3A3A39" transform="translate(47,25)"/>
<path d="M0 0 C1 1 1 1 1.25 3.875 C1 7 1 7 -0.1875 8.875 C-2.61758081 10.38332602 -4.19015752 10.36023622 -7 10 C-9 8 -9 8 -9.3125 5.5625 C-9 3 -9 3 -7.875 1.1875 C-5.19768863 -0.50813053 -3.09910627 -0.2694875 0 0 Z " fill="#E9F2EC" transform="translate(54,106)"/>
<path d="M0 0 C0.33 0 0.66 0 1 0 C1.62608696 10.74782609 1.62608696 10.74782609 -0.75 15.5 C-1.4925 16.325 -2.235 17.15 -3 18 C-3.70125 18.78375 -4.4025 19.5675 -5.125 20.375 C-7 22 -7 22 -9 22 C-9.33 22.66 -9.66 23.32 -10 24 C-10.66 23.67 -11.32 23.34 -12 23 C-11.505 21.515 -11.505 21.515 -11 20 C-10.01 20.33 -9.02 20.66 -8 21 C-8 19.35 -8 17.7 -8 16 C-7.01 16 -6.02 16 -5 16 C-5.33 14.35 -5.66 12.7 -6 11 C-5.34 11.33 -4.68 11.66 -4 12 C-3.22678118 9.01758453 -2.58803797 6.02419525 -2 3 C-1.34 3 -0.68 3 0 3 C0 2.01 0 1.02 0 0 Z " fill="#1B1B1C" transform="translate(93,50)"/>
<path d="M0 0 C1.32 0 2.64 0 4 0 C4.61875 1.6396875 4.61875 1.6396875 5.25 3.3125 C6.60285591 6.51015942 7.94055844 8.20653426 11 10 C9.68 10.33 8.36 10.66 7 11 C7 11.66 7 12.32 7 13 C4 15 4 15 1 15 C-0.36475387 12.27049225 -0.06060095 10.03004728 0 7 C0 5.68 0 4.36 0 3 C0 2.01 0 1.02 0 0 Z " fill="#747574" transform="translate(35,41)"/>
<path d="M0 0 C1.65 0 3.3 0 5 0 C4.98839844 0.67546875 4.97679688 1.3509375 4.96484375 2.046875 C4.95582031 2.93890625 4.94679688 3.8309375 4.9375 4.75 C4.92589844 5.63171875 4.91429688 6.5134375 4.90234375 7.421875 C4.99173802 9.7818838 5.33087179 11.74498524 6 14 C5.195625 14.28875 4.39125 14.5775 3.5625 14.875 C0.8673532 15.73262568 0.8673532 15.73262568 0 18 C-0.66 18 -1.32 18 -2 18 C-1.649375 17.278125 -1.29875 16.55625 -0.9375 15.8125 C0.11155749 12.66532752 0.03916873 11.11750618 -1 8 C-1.66 7.67 -2.32 7.34 -3 7 C-2.01 4.69 -1.02 2.38 0 0 Z " fill="#4F5050" transform="translate(84,41)"/>
<path d="M0 0 C1.65 0 3.3 0 5 0 C5 0.66 5 1.32 5 2 C4.34 2 3.68 2 3 2 C2.89042969 2.60328125 2.78085938 3.2065625 2.66796875 3.828125 C0.99897404 12.24094389 0.99897404 12.24094389 -2 15 C-2.99 15 -3.98 15 -5 15 C-5 14.01 -5 13.02 -5 12 C-4.01 12 -3.02 12 -2 12 C-2.30035156 11.45730469 -2.60070312 10.91460937 -2.91015625 10.35546875 C-3.29042969 9.64003906 -3.67070313 8.92460938 -4.0625 8.1875 C-4.44535156 7.47980469 -4.82820313 6.77210937 -5.22265625 6.04296875 C-6 4 -6 4 -5 1 C-3.68 1 -2.36 1 -1 1 C-1 2.65 -1 4.3 -1 6 C-0.67 4.02 -0.34 2.04 0 0 Z " fill="#E9EEEA" transform="translate(95,96)"/>
<path d="M0 0 C-0.32758301 0.52779053 -0.65516602 1.05558105 -0.99267578 1.59936523 C-3.12132248 6.67231313 -2.06957881 12.66023544 -1.875 18.0625 C-1.85179687 19.35478516 -1.82859375 20.64707031 -1.8046875 21.97851562 C-1.7428125 23.83186523 -1.7428125 23.83186523 -1.6796875 25.72265625 C-1.64601074 26.85453369 -1.61233398 27.98641113 -1.57763672 29.15258789 C-1.25755851 32.09452749 -1.25755851 32.09452749 0.89501953 33.86035156 C3.28198759 35.15266969 5.05261521 35.48916288 7.75 35.6875 C8.54921875 35.75324219 9.3484375 35.81898437 10.171875 35.88671875 C10.77515625 35.92410156 11.3784375 35.96148437 12 36 C12 36.33 12 36.66 12 37 C1.90726598 37.62644556 1.90726598 37.62644556 -1.625 35.1875 C-3.88319187 31.59492202 -4.09046499 28.88877331 -4 24.75 C-3.95143137 21.13384462 -4.00287505 17.58072426 -4.32421875 13.98046875 C-4.38287109 13.30854492 -4.44152344 12.63662109 -4.50195312 11.94433594 C-4.68056471 10.01251059 -4.87703425 8.08236177 -5.07421875 6.15234375 C-5 3 -5 3 -3.64453125 1.06640625 C-2 0 -2 0 0 0 Z " fill="#050704" transform="translate(16,91)"/>
<path d="M0 0 C0.66 0 1.32 0 2 0 C2.33 1.32 2.66 2.64 3 4 C4.65 3.67 6.3 3.34 8 3 C8.103125 3.556875 8.20625 4.11375 8.3125 4.6875 C9.12944635 7.43541044 10.52070457 9.55594668 12 12 C12 12.66 12 13.32 12 14 C12.99 13.67 13.98 13.34 15 13 C14.67 13.99 14.34 14.98 14 16 C13.01 15.67 12.02 15.34 11 15 C11 14.34 11 13.68 11 13 C10.4225 13.20625 9.845 13.4125 9.25 13.625 C7 14 7 14 4.875 13.5 C2.02958971 11.22367177 1.84919183 8.45742388 1 5 C0.34 4.01 -0.32 3.02 -1 2 C-0.67 1.34 -0.34 0.68 0 0 Z " fill="#323232" transform="translate(42,67)"/>
<path d="M0 0 C0.66 0.33 1.32 0.66 2 1 C2 1.66 2 2.32 2 3 C4.97 3 7.94 3 11 3 C10.34 3.66 9.68 4.32 9 5 C7.68 5 6.36 5 5 5 C5 6.65 5 8.3 5 10 C5.66 10 6.32 10 7 10 C7 9.34 7 8.68 7 8 C7.66 8 8.32 8 9 8 C9 8.99 9 9.98 9 11 C8.05125 11.309375 7.1025 11.61875 6.125 11.9375 C3.13919592 12.87394742 3.13919592 12.87394742 1 14 C-0.99960012 14.039992 -3.00047242 14.04346799 -5 14 C-4.67 11.69 -4.34 9.38 -4 7 C-2.35 7.33 -0.7 7.66 1 8 C1.33 8.99 1.66 9.98 2 11 C2 9.68 2 8.36 2 7 C1.34 6.67 0.68 6.34 0 6 C0 4.02 0 2.04 0 0 Z " fill="#1E2120" transform="translate(63,73)"/>
<path d="M0 0 C0.33 2.64 0.66 5.28 1 8 C-0.32 8.33 -1.64 8.66 -3 9 C-3 6.69 -3 4.38 -3 2 C-3.99 2.495 -3.99 2.495 -5 3 C-5 5.31 -5 7.62 -5 10 C-6.65 10 -8.3 10 -10 10 C-10 7.03 -10 4.06 -10 1 C-3.71428571 -1.42857143 -3.71428571 -1.42857143 0 0 Z " fill="#E2EEE5" transform="translate(66,104)"/>
<path d="M0 0 C0.99 0 1.98 0 3 0 C3 0.66 3 1.32 3 2 C5.64 1.67 8.28 1.34 11 1 C11 1.66 11 2.32 11 3 C10.360625 3.268125 9.72125 3.53625 9.0625 3.8125 C6.66868314 4.88667752 6.66868314 4.88667752 6 8 C6.99 8.33 7.98 8.66 9 9 C8.21625 9.28875 7.4325 9.5775 6.625 9.875 C3.90328368 10.84912254 3.90328368 10.84912254 2 13 C2 12.34 2 11.68 2 11 C1.01 10.67 0.02 10.34 -1 10 C-0.195625 9.71125 0.60875 9.4225 1.4375 9.125 C4.1326468 8.26737432 4.1326468 8.26737432 5 6 C4.01 6.66 3.02 7.32 2 8 C-0.1875 7.625 -0.1875 7.625 -2 7 C-2.125 4.625 -2.125 4.625 -2 2 C-1.34 1.34 -0.68 0.68 0 0 Z " fill="#368D51" transform="translate(42,94)"/>
<path d="M0 0 C0.66 0.33 1.32 0.66 2 1 C2.40729228 3.32156597 2.74438677 5.6568787 3 8 C1.0625 7.625 1.0625 7.625 -1 7 C-1.33 6.34 -1.66 5.68 -2 5 C-1.09531903 11.83236674 0.07892034 16.07892034 5 21 C4.67 21.66 4.34 22.32 4 23 C2.84501103 21.92643323 1.70132133 20.84070212 0.5625 19.75 C-0.07558594 19.14671875 -0.71367188 18.5434375 -1.37109375 17.921875 C-3.10996778 15.87025384 -3.53182293 14.60457129 -4 12 C-4.33 11.34 -4.66 10.68 -5 10 C-5.99 10.495 -5.99 10.495 -7 11 C-7 8.69 -7 6.38 -7 4 C-6.030625 3.525625 -5.06125 3.05125 -4.0625 2.5625 C-1.19522563 1.29806053 -1.19522563 1.29806053 0 0 Z " fill="#242822" transform="translate(53,2)"/>
<path d="M0 0 C0.99 0.33 1.98 0.66 3 1 C3 1.66 3 2.32 3 3 C3.515625 2.7525 4.03125 2.505 4.5625 2.25 C7.7800385 1.91999605 9.54816504 3.21327663 12.21875 4.89453125 C14.00151672 6.08097706 14.00151672 6.08097706 16.171875 6.81640625 C18 8 18 8 18.609375 10.3828125 C18.65578125 11.28773437 18.7021875 12.19265625 18.75 13.125 C18.80671875 14.03507813 18.8634375 14.94515625 18.921875 15.8828125 C18.94765625 16.58148437 18.9734375 17.28015625 19 18 C16.78641326 15.0981552 14.83999512 12.15427735 13 9 C12.01 9.495 12.01 9.495 11 10 C10.34 9.67 9.68 9.34 9 9 C9 7.68 9 6.36 9 5 C8.34 5 7.68 5 7 5 C6.67 5.99 6.34 6.98 6 8 C4.62437146 6.71034824 3.29233607 5.37310707 2 4 C2 3.34 2 2.68 2 2 C1.01 1.67 0.02 1.34 -1 1 C-0.67 0.67 -0.34 0.34 0 0 Z " fill="#111011" transform="translate(53,0)"/>
<path d="M0 0 C1.98 0.495 1.98 0.495 4 1 C3.01 1.495 3.01 1.495 2 2 C1.83318891 4.91652174 1.83318891 4.91652174 2 8 C4.49505962 10.49505962 5.67328888 10.35948376 9.125 10.625 C10.03507812 10.69976562 10.94515625 10.77453125 11.8828125 10.8515625 C12.58148438 10.90054688 13.28015625 10.94953125 14 11 C13.34 12.98 12.68 14.96 12 17 C11.01 16.34 10.02 15.68 9 15 C8.21625 15.515625 7.4325 16.03125 6.625 16.5625 C5.75875 17.036875 4.8925 17.51125 4 18 C3.34 17.67 2.68 17.34 2 17 C2 16.34 2 15.68 2 15 C2.99 14.67 3.98 14.34 5 14 C4.195625 13.484375 3.39125 12.96875 2.5625 12.4375 C-0.70013964 9.33401351 -0.8391431 7.42356466 -1 3 C-0.67 2.01 -0.34 1.02 0 0 Z " fill="#323536" transform="translate(40,37)"/>
<path d="M0 0 C0.66 0 1.32 0 2 0 C2 1.32 2 2.64 2 4 C3.32 3.34 4.64 2.68 6 2 C10 6.875 10 6.875 10 8 C10.99 8.33 11.98 8.66 13 9 C11.34233202 10.65766798 9.39653595 10.21049503 7.125 10.25 C6.24070312 10.27578125 5.35640625 10.3015625 4.4453125 10.328125 C2 10 2 10 0.1953125 8.6796875 C-1.6061043 6.1482848 -1.26208171 4.01393963 -1 1 C-0.67 0.67 -0.34 0.34 0 0 Z " fill="#A6A5A2" transform="translate(42,38)"/>
<path d="M0 0 C1.4606285 2.64738916 2 3.89448334 2 7 C1.401875 6.690625 0.80375 6.38125 0.1875 6.0625 C-2.08956772 4.89790296 -2.08956772 4.89790296 -5 4 C-4.67 4.99 -4.34 5.98 -4 7 C-3.73913043 15.2173913 -3.73913043 15.2173913 -5 19 C-5.66 19 -6.32 19 -7 19 C-7 19.99 -7 20.98 -7 22 C-7.66 22 -8.32 22 -9 22 C-8.53200031 19.59314446 -8.06721711 17.22853817 -7.375 14.875 C-6.7958595 12.78552327 -6.7958595 12.78552327 -8 10 C-7.66666667 8.33333333 -7.33333333 6.66666667 -7 5 C-7.33 4.01 -7.66 3.02 -8 2 C-5.36 1.34 -2.72 0.68 0 0 Z " fill="#ACACAC" transform="translate(83,48)"/>
<path d="M0 0 C1.32 0.33 2.64 0.66 4 1 C3.25 7.75 3.25 7.75 1 10 C-1.27734375 10.30078125 -1.27734375 10.30078125 -3.9375 10.3125 C-5.25041016 10.33763672 -5.25041016 10.33763672 -6.58984375 10.36328125 C-9.40208512 9.93939398 -10.25454479 9.18325915 -12 7 C-9.03 7.495 -9.03 7.495 -6 8 C-5.34 6.02 -4.68 4.04 -4 2 C-1.525 2.99 -1.525 2.99 1 4 C0.67 2.68 0.34 1.36 0 0 Z " fill="#BEBCB8" transform="translate(79,38)"/>
<path d="M0 0 C0.33 0 0.66 0 1 0 C1.0501123 0.72179443 1.10022461 1.44358887 1.15185547 2.18725586 C1.38306799 5.43812489 1.62883319 8.68773066 1.875 11.9375 C1.95363281 13.07380859 2.03226563 14.21011719 2.11328125 15.38085938 C2.19707031 16.46044922 2.28085937 17.54003906 2.3671875 18.65234375 C2.44050293 19.65257568 2.51381836 20.65280762 2.58935547 21.68334961 C2.72486816 22.44784424 2.86038086 23.21233887 3 24 C3.66 24.33 4.32 24.66 5 25 C0.125 24.125 0.125 24.125 -1 23 C-1.0991657 21.37742456 -1.13079777 19.75060169 -1.1328125 18.125 C-1.13410156 17.14015625 -1.13539062 16.1553125 -1.13671875 15.140625 C-1.13285156 14.10421875 -1.12898437 13.0678125 -1.125 12 C-1.13080078 10.44539063 -1.13080078 10.44539063 -1.13671875 8.859375 C-1.13542969 7.87453125 -1.13414063 6.8896875 -1.1328125 5.875 C-1.13168457 4.96492188 -1.13055664 4.05484375 -1.12939453 3.1171875 C-1 1 -1 1 0 0 Z " fill="#2AA34A" transform="translate(16,101)"/>
<path d="M0 0 C5.75 3.625 5.75 3.625 8 7 C7.01 7 6.02 7 5 7 C5.33 7.66 5.66 8.32 6 9 C2.37 8.34 -1.26 7.68 -5 7 C-5 5.68 -5 4.36 -5 3 C-2.5 1.25 -2.5 1.25 0 0 Z " fill="#313131" transform="translate(46,18)"/>
<path d="M0 0 C0.78375 0.04125 1.5675 0.0825 2.375 0.125 C2.705 1.775 3.035 3.425 3.375 5.125 C2.735625 5.24875 2.09625 5.3725 1.4375 5.5 C0.4165625 5.809375 0.4165625 5.809375 -0.625 6.125 C-0.955 6.785 -1.285 7.445 -1.625 8.125 C0.025 7.795 1.675 7.465 3.375 7.125 C2.1875 8.6875 2.1875 8.6875 0.375 10.125 C-2.3125 9.8125 -2.3125 9.8125 -4.625 9.125 C-4.75 5.75 -4.75 5.75 -4.625 2.125 C-2.625 0.125 -2.625 0.125 0 0 Z " fill="#CBE0D2" transform="translate(84.625,98.875)"/>
<path d="M0 0 C0.33 0 0.66 0 1 0 C1.19551338 1.60320974 1.38111983 3.20762986 1.5625 4.8125 C1.66691406 5.70582031 1.77132812 6.59914063 1.87890625 7.51953125 C2 10 2 10 1 13 C-1.5625 14.1875 -1.5625 14.1875 -4 15 C-4 15.99 -4 16.98 -4 18 C-4.66 18 -5.32 18 -6 18 C-6.33 17.01 -6.66 16.02 -7 15 C-6.67 14.67 -6.34 14.34 -6 14 C-6.66 13.34 -7.32 12.68 -8 12 C-7.236875 11.319375 -6.47375 10.63875 -5.6875 9.9375 C-2.67156669 6.64101475 -1.54120983 4.13693165 0 0 Z " fill="#0E0E0F" transform="translate(45,6)"/>
<path d="M0 0 C0.99 0 1.98 0 3 0 C1.69647989 20.2731681 1.69647989 20.2731681 -5.5390625 26.78515625 C-6.02117187 27.18605469 -6.50328125 27.58695313 -7 28 C-7.99 27.67 -8.98 27.34 -10 27 C-9.51789063 26.61328125 -9.03578125 26.2265625 -8.5390625 25.828125 C-7.90742187 25.30734375 -7.27578125 24.7865625 -6.625 24.25 C-5.99851562 23.73953125 -5.37203125 23.2290625 -4.7265625 22.703125 C-0.44962462 18.4842451 -0.60229868 13.96087936 -0.375 8.25 C-0.31699219 7.06083984 -0.31699219 7.06083984 -0.2578125 5.84765625 C-0.163892 3.89880584 -0.08087178 1.94943549 0 0 Z " fill="#63666A" transform="translate(94,45)"/>
<path d="M0 0 C0.33 0 0.66 0 1 0 C1 1.65 1 3.3 1 5 C1.99 5.33 2.98 5.66 4 6 C3.67 7.65 3.34 9.3 3 11 C2.01 10.01 1.02 9.02 0 8 C-0.99 9.485 -0.99 9.485 -2 11 C-2.61875 10.360625 -3.2375 9.72125 -3.875 9.0625 C-5.82597612 6.96116416 -5.82597612 6.96116416 -8 6 C-7.34 4.35 -6.68 2.7 -6 1 C-5.34 1 -4.68 1 -4 1 C-3.67 1.66 -3.34 2.32 -3 3 C-2.34 3 -1.68 3 -1 3 C-0.67 2.01 -0.34 1.02 0 0 Z " fill="#8F8F8D" transform="translate(62,74)"/>
<path d="M0 0 C0 4.29 0 8.58 0 13 C-1.65 13 -3.3 13 -5 13 C-4.979375 11.7625 -4.95875 10.525 -4.9375 9.25 C-4.93233319 6.3359175 -5.06984442 3.79046673 -6 1 C-4 0 -4 0 0 0 Z " fill="#F5F9F6" transform="translate(44,105)"/>
<path d="M0 0 C0.33 1.32 0.66 2.64 1 4 C-0.65 4.66 -2.3 5.32 -4 6 C-2.68 6.33 -1.36 6.66 0 7 C-0.66 7.66 -1.32 8.32 -2 9 C-4.625 8.625 -4.625 8.625 -7 8 C-7.6875 5.6875 -7.6875 5.6875 -8 3 C-5.90994325 -0.36731366 -3.75103888 -0.30413829 0 0 Z " fill="#E6F1E9" transform="translate(77,89)"/>
<path d="M0 0 C0 0.66 0 1.32 0 2 C0.99 2.33 1.98 2.66 3 3 C2.67 3.99 2.34 4.98 2 6 C1.34 6 0.68 6 0 6 C-1.2375 6.061875 -1.2375 6.061875 -2.5 6.125 C-5 6 -5 6 -7 4 C-7.99 4.33 -8.98 4.66 -10 5 C-10 4.01 -10 3.02 -10 2 C-6.5980513 -0.09350689 -3.94727588 -0.17942163 0 0 Z " fill="#373838" transform="translate(54,37)"/>
<path d="M0 0 C6.45180723 -0.12650602 6.45180723 -0.12650602 9.4375 0.5625 C13.11949347 1.19113303 16.31320876 0.56239188 20 0 C19.67 0.66 19.34 1.32 19 2 C18.34 2 17.68 2 17 2 C16.67 2.99 16.34 3.98 16 5 C12.4825327 6.1724891 11.01004503 6.00352457 7.4375 4.75 C4.66690265 3.33951408 2.36760757 1.98879036 0 0 Z " fill="#959595" transform="translate(49,28)"/>
<path d="M0 0 C0.66 0.66 1.32 1.32 2 2 C1.34 2 0.68 2 0 2 C0 2.66 0 3.32 0 4 C-3.96 4.99 -7.92 5.98 -12 7 C-9.2257535 0.06438374 -7.13429961 -0.51885815 0 0 Z " fill="#CECECE" transform="translate(53,30)"/>
<path d="M0 0 C1.37478516 0.01740234 1.37478516 0.01740234 2.77734375 0.03515625 C3.69644531 0.04417969 4.61554688 0.05320312 5.5625 0.0625 C6.27277344 0.07410156 6.98304687 0.08570312 7.71484375 0.09765625 C7.38484375 1.74765625 7.05484375 3.39765625 6.71484375 5.09765625 C3.74484375 5.09765625 0.77484375 5.09765625 -2.28515625 5.09765625 C-2.61515625 3.77765625 -2.94515625 2.45765625 -3.28515625 1.09765625 C-2.28515625 0.09765625 -2.28515625 0.09765625 0 0 Z " fill="#4D5055" transform="translate(67.28515625,70.90234375)"/>
<path d="M0 0 C2.0245738 1.93254772 3.42105792 3.63158688 5 6 C5 7.32 5 8.64 5 10 C4.34 10 3.68 10 3 10 C2.67 11.32 2.34 12.64 2 14 C2 12.35 2 10.7 2 9 C1.34 9 0.68 9 0 9 C-0.28875 8.195625 -0.5775 7.39125 -0.875 6.5625 C-1.73262568 3.8673532 -1.73262568 3.8673532 -4 3 C-2.68 2.01 -1.36 1.02 0 0 Z " fill="#050405" transform="translate(86,21)"/>
<path d="M0 0 C2 3 2 3 2 5 C2.99 5.33 3.98 5.66 5 6 C4.67 7.32 4.34 8.64 4 10 C1.625 10.625 1.625 10.625 -1 11 C-1.66 10.34 -2.32 9.68 -3 9 C-2.34 8.01 -1.68 7.02 -1 6 C-1.99 5.67 -2.98 5.34 -4 5 C-2.68 3.35 -1.36 1.7 0 0 Z " fill="#A2A2A3" transform="translate(34,51)"/>
<path d="M0 0 C1.32 0 2.64 0 4 0 C4.33 0.66 4.66 1.32 5 2 C7.42459787 2.83492354 7.42459787 2.83492354 10 3 C10.66 2.34 11.32 1.68 12 1 C12 2.98 12 4.96 12 7 C11.34 7 10.68 7 10 7 C10 8.32 10 9.64 10 11 C9.34 11 8.68 11 8 11 C6.7109375 9.3203125 6.7109375 9.3203125 5.375 7.125 C4.70597656 6.04605469 4.70597656 6.04605469 4.0234375 4.9453125 C3 3 3 3 3 1 C2.01 0.67 1.02 0.34 0 0 Z " fill="#464949" transform="translate(76,29)"/>
<path d="M0 0 C2 4 2 4 2.8125 6.375 C4.37218468 9.82272402 6.49660323 12.16720892 9 15 C8.67 15.66 8.34 16.32 8 17 C4.7 14.36 1.4 11.72 -2 9 C-1.34 6.03 -0.68 3.06 0 0 Z " fill="#8F8F8F" transform="translate(47,8)"/>
<path d="M0 0 C0 0.66 0 1.32 0 2 C1.65 2 3.3 2 5 2 C5.5625 3.9375 5.5625 3.9375 6 6 C5 7 5 7 2.71484375 7.09765625 C1.34005859 7.08025391 1.34005859 7.08025391 -0.0625 7.0625 C-0.98160156 7.05347656 -1.90070312 7.04445313 -2.84765625 7.03515625 C-3.55792969 7.02355469 -4.26820312 7.01195313 -5 7 C-5 6.67 -5 6.34 -5 6 C-3.35 5.67 -1.7 5.34 0 5 C-0.61875 4.731875 -1.2375 4.46375 -1.875 4.1875 C-4 3 -4 3 -6 0 C-3 -1 -3 -1 0 0 Z " fill="#060606" transform="translate(53,80)"/>
<path d="M0 0 C0.66 0.33 1.32 0.66 2 1 C1.67 2.65 1.34 4.3 1 6 C0.01 6 -0.98 6 -2 6 C-2 5.01 -2 4.02 -2 3 C-5.63 3 -9.26 3 -13 3 C-8.50178315 0.00118877 -5.3285099 -0.193764 0 0 Z " fill="#131613" transform="translate(106,108)"/>
<path d="M0 0 C2.52259061 1.97420135 2.9929808 2.96745642 3.6875 6.1875 C3.790625 7.115625 3.89375 8.04375 4 9 C2.68 9.33 1.36 9.66 0 10 C-0.33 12.97 -0.66 15.94 -1 19 C-1.33 19 -1.66 19 -2 19 C-1.98839844 18.10796875 -1.97679688 17.2159375 -1.96484375 16.296875 C-1.95582031 15.12640625 -1.94679688 13.9559375 -1.9375 12.75 C-1.92589844 11.58984375 -1.91429688 10.4296875 -1.90234375 9.234375 C-1.98217908 6.59022872 -2.21356222 4.50173909 -3 2 C-2.34 2 -1.68 2 -1 2 C-0.67 1.34 -0.34 0.68 0 0 Z " fill="#64686C" transform="translate(93,30)"/>
<path d="M0 0 C4.90739916 3.14814286 7.97347282 5.30039229 10 11 C9.67 11.66 9.34 12.32 9 13 C8.236875 12.360625 7.47375 11.72125 6.6875 11.0625 C4.11753287 8.85767219 4.11753287 8.85767219 1 8 C0.67 5.36 0.34 2.72 0 0 Z " fill="#575757" transform="translate(54,3)"/>
<path d="M0 0 C2.31590289 3.47385433 2.26991835 4.96430006 2.25 9.0625 C2.25515625 10.12597656 2.2603125 11.18945312 2.265625 12.28515625 C2 15 2 15 0 17 C-0.33 14.36 -0.66 11.72 -1 9 C-1.99 9 -2.98 9 -4 9 C-4 7.68 -4 6.36 -4 5 C-2.68 5 -1.36 5 0 5 C0 3.35 0 1.7 0 0 Z " fill="#84888A" transform="translate(98,35)"/>
<path d="M0 0 C6.93 0 13.86 0 21 0 C20.67 0.66 20.34 1.32 20 2 C16.42306178 3.19231274 13.15817447 3.1461202 9.4375 3.125 C8.75236328 3.12886719 8.06722656 3.13273437 7.36132812 3.13671875 C2.2533867 3.12669335 2.2533867 3.12669335 0 2 C0 1.34 0 0.68 0 0 Z " fill="#EFEFEF" transform="translate(51,60)"/>
<path d="M0 0 C-0.639375 0.28875 -1.27875 0.5775 -1.9375 0.875 C-4.15206079 1.82823451 -4.15206079 1.82823451 -5 4 C-8.36352022 5.24953205 -11.69883603 5.10109961 -15.25 5.0625 C-16.32765625 5.05347656 -17.4053125 5.04445313 -18.515625 5.03515625 C-19.33546875 5.02355469 -20.1553125 5.01195313 -21 5 C-17.89090663 3.30212631 -14.86140699 2.32724998 -11.4375 1.4375 C-2.61702128 -0.87234043 -2.61702128 -0.87234043 0 0 Z " fill="#0F1B12" transform="translate(80,114)"/>
<path d="M0 0 C0.33 0.99 0.66 1.98 1 3 C-0.32 3 -1.64 3 -3 3 C-3 2.34 -3 1.68 -3 1 C-3.54269531 1.2165625 -4.08539063 1.433125 -4.64453125 1.65625 C-5.71767578 2.07390625 -5.71767578 2.07390625 -6.8125 2.5 C-7.87404297 2.91765625 -7.87404297 2.91765625 -8.95703125 3.34375 C-11 4 -11 4 -14 4 C-14 3.34 -14 2.68 -14 2 C-14.66 1.67 -15.32 1.34 -16 1 C-10.10106757 -0.79074734 -6.06820868 -1.08360869 0 0 Z " fill="#656765" transform="translate(58,35)"/>
<path d="M0 0 C2.31 0 4.62 0 7 0 C7.66 1.32 8.32 2.64 9 4 C8.01 4 7.02 4 6 4 C5.67 4.66 5.34 5.32 5 6 C3.35 6 1.7 6 0 6 C-1.125 2.25 -1.125 2.25 0 0 Z " fill="#262727" transform="translate(70,37)"/>
<path d="M0 0 C-0.33 0.99 -0.66 1.98 -1 3 C0.65 3 2.3 3 4 3 C3.67 3.99 3.34 4.98 3 6 C1.02 5.34 -0.96 4.68 -3 4 C-3 3.34 -3 2.68 -3 2 C-5.64 2.33 -8.28 2.66 -11 3 C-11 2.01 -11 1.02 -11 0 C-7.18243176 -1.37432457 -3.92744671 -0.67975039 0 0 Z " fill="#919191" transform="translate(83,27)"/>
<path d="M0 0 C0.66 0.66 1.32 1.32 2 2 C2.66 1.67 3.32 1.34 4 1 C4 2.32 4 3.64 4 5 C1.69631264 6.06652192 -0.64018187 7.06421005 -3 8 C-3.66 7.67 -4.32 7.34 -5 7 C-5.33 7.66 -5.66 8.32 -6 9 C-5.67 7.35 -5.34 5.7 -5 4 C-4.01 4 -3.02 4 -2 4 C-1.34 2.68 -0.68 1.36 0 0 Z " fill="#2D2D2D" transform="translate(67,22)"/>
<path d="M0 0 C-0.37125 0.9075 -0.7425 1.815 -1.125 2.75 C-2.30359299 5.88097015 -2.30359299 5.88097015 -1.125 8.375 C-0.75375 8.91125 -0.3825 9.4475 0 10 C-1.32 10 -2.64 10 -4 10 C-5.75 7.5 -5.75 7.5 -7 5 C-6.34 5 -5.68 5 -5 5 C-5 3.68 -5 2.36 -5 1 C-3 0 -3 0 0 0 Z " fill="#E7F1EA" transform="translate(79,100)"/>
<path d="M0 0 C1.258125 0.33 2.51625 0.66 3.8125 1 C11.14649157 2.63106122 18.65192623 2.58877271 26 1 C26 1.99 26 2.98 26 4 C22.41673499 4.05814085 18.83359162 4.09364357 15.25 4.125 C14.23421875 4.14175781 13.2184375 4.15851562 12.171875 4.17578125 C11.1921875 4.18222656 10.2125 4.18867187 9.203125 4.1953125 C7.85202637 4.21102295 7.85202637 4.21102295 6.47363281 4.22705078 C3.86073144 3.98721676 2.24335334 3.32312064 0 2 C0 1.34 0 0.68 0 0 Z " fill="#919191" transform="translate(46,57)"/>
<path d="M0 0 C0 0.66 0 1.32 0 2 C-0.99 2.495 -0.99 2.495 -2 3 C-2 4.98 -2 6.96 -2 9 C-3.65 9 -5.3 9 -7 9 C-7 6.36 -7 3.72 -7 1 C-2.25 0 -2.25 0 0 0 Z " fill="#E6F1EA" transform="translate(86,87)"/>
<path d="M0 0 C0.99 0 1.98 0 3 0 C3 0.66 3 1.32 3 2 C2.01 2 1.02 2 0 2 C0 3.65 0 5.3 0 7 C-0.99 7 -1.98 7 -3 7 C-3.33 7.66 -3.66 8.32 -4 9 C-3.34 9.33 -2.68 9.66 -2 10 C-3 11 -3 11 -6.5625 11.0625 C-7.696875 11.041875 -8.83125 11.02125 -10 11 C-10 10.67 -10 10.34 -10 10 C-8.35 10 -6.7 10 -5 10 C-5 7.69 -5 5.38 -5 3 C-4.67 3.66 -4.34 4.32 -4 5 C-3.34 5 -2.68 5 -2 5 C-1.855625 4.360625 -1.71125 3.72125 -1.5625 3.0625 C-1 1 -1 1 0 0 Z " fill="#6B6C6D" transform="translate(85,64)"/>
<path d="M0 0 C0.33 0.66 0.66 1.32 1 2 C1.99 2 2.98 2 4 2 C3.67 2.66 3.34 3.32 3 4 C2.34 3.67 1.68 3.34 1 3 C1 3.66 1 4.32 1 5 C1.99 5.33 2.98 5.66 4 6 C3.67 8.64 3.34 11.28 3 14 C-0.25571411 9.11642883 -1.33033481 6.94602662 -1 1 C-0.67 0.67 -0.34 0.34 0 0 Z " fill="#B2B3B3" transform="translate(45,54)"/>
<path d="M0 0 C8.375 -0.32211538 8.375 -0.32211538 11 2 C11.75 5.625 11.75 5.625 12 9 C10.68 8.34 9.36 7.68 8 7 C8 5.68 8 4.36 8 3 C7.05125 3.061875 6.1025 3.12375 5.125 3.1875 C4.09375 3.125625 3.0625 3.06375 2 3 C1.34 2.01 0.68 1.02 0 0 Z " fill="#57595B" transform="translate(69,34)"/>
<path d="M0 0 C0.99 0.495 0.99 0.495 2 1 C2 1.66 2 2.32 2 3 C2.61875 3.268125 3.2375 3.53625 3.875 3.8125 C6 5 6 5 8 8 C6.68 8.99 5.36 9.98 4 11 C0 4.5 0 4.5 0 0 Z " fill="#BDBDBD" transform="translate(50,6)"/>
<path d="M0 0 C2.05078125 0.03255208 4.1015625 0.06510417 6.15234375 0.09765625 C5.82234375 1.08765625 5.49234375 2.07765625 5.15234375 3.09765625 C1.54855395 4.61925639 -0.89986311 5.09765625 -4.84765625 5.09765625 C-2.44354091 0.12915121 -2.44354091 0.12915121 0 0 Z " fill="#238240" transform="translate(60.84765625,99.90234375)"/>
<path d="M0 0 C0.66 0 1.32 0 2 0 C1.79503906 0.66386719 1.59007812 1.32773437 1.37890625 2.01171875 C0.97478516 3.33623047 0.97478516 3.33623047 0.5625 4.6875 C0.29566406 5.55761719 0.02882813 6.42773438 -0.24609375 7.32421875 C-0.96344529 9.87025921 -1.517541 12.4003423 -2 15 C-2.99 15 -3.98 15 -5 15 C-3.97137215 9.55432314 -2.75385216 4.88182883 0 0 Z " fill="#B0B3B5" transform="translate(32,24)"/>
<path d="M0 0 C2.2477975 2.05233685 3.0022242 3.00667261 4 6 C4.66 5.34 5.32 4.68 6 4 C5.875 6.25 5.875 6.25 5 9 C1.9375 11.3125 1.9375 11.3125 -1 13 C-0.125 6.25 -0.125 6.25 1 4 C0.60061233 1.90178785 0.60061233 1.90178785 0 0 Z " fill="#949494" transform="translate(70,10)"/>
<path d="M0 0 C5.2905277 -0.66131596 8.15696618 0.95446148 12.4609375 3.7109375 C12.96882813 4.13632812 13.47671875 4.56171875 14 5 C14 5.66 14 6.32 14 7 C10.2089881 5.55049545 6.6125362 3.84827434 3 2 C2.34 3.32 1.68 4.64 1 6 C0.67 4.02 0.34 2.04 0 0 Z " fill="#3E3F42" transform="translate(72,12)"/>
<path d="M0 0 C4.07231667 0.60083361 7.10234153 1.93705005 10.6875 3.9375 C11.64011719 4.46214844 12.59273437 4.98679687 13.57421875 5.52734375 C16 7 16 7 18 9 C17.67 9.99 17.34 10.98 17 12 C16.278125 11.236875 15.55625 10.47375 14.8125 9.6875 C10.22298647 5.30196485 6.13772636 3.56451849 0 2 C0 1.34 0 0.68 0 0 Z " fill="#060404" transform="translate(71,9)"/>
<path d="M0 0 C0.96516243 3.00272755 1.22393475 5.04215769 0 8 C-0.99 8.33 -1.98 8.66 -3 9 C-3 8.34 -3 7.68 -3 7 C-4.32 6.67 -5.64 6.34 -7 6 C-7 5.01 -7 4.02 -7 3 C-5.68 3 -4.36 3 -3 3 C-2.67 2.34 -2.34 1.68 -2 1 C-1.67 1.33 -1.34 1.66 -1 2 C-0.67 1.34 -0.34 0.68 0 0 Z " fill="#757774" transform="translate(57,40)"/>
<path d="M0 0 C0 0.99 0 1.98 0 3 C-3.77578157 5.96668552 -7.39874735 7.68535639 -12 9 C-12.33 8.01 -12.66 7.02 -13 6 C-12.14535156 5.65066406 -11.29070312 5.30132812 -10.41015625 4.94140625 C-9.30542969 4.48636719 -8.20070313 4.03132813 -7.0625 3.5625 C-5.96035156 3.11003906 -4.85820313 2.65757813 -3.72265625 2.19140625 C-1.13431084 1.25575392 -1.13431084 1.25575392 0 0 Z " fill="#060405" transform="translate(92,69)"/>
<path d="M0 0 C0.763125 0.495 1.52625 0.99 2.3125 1.5 C4.92363751 3.24368308 4.92363751 3.24368308 8 3 C8 3.66 8 4.32 8 5 C7.34 5 6.68 5 6 5 C5.67 6.65 5.34 8.3 5 10 C2.48916886 8.74458443 2.12874554 7.49936512 1 5 C0.34 5 -0.32 5 -1 5 C-0.67 3.35 -0.34 1.7 0 0 Z " fill="#AFAFAE" transform="translate(50,70)"/>
<path d="M0 0 C0.66 0 1.32 0 2 0 C2.33 1.32 2.66 2.64 3 4 C4.65 3.67 6.3 3.34 8 3 C6.8141763 6.37503669 5.72426311 8.64722731 3 11 C2.525625 9.88625 2.05125 8.7725 1.5625 7.625 C0.74693537 5.73289006 -0.07856355 3.84287291 -1 2 C-0.67 1.34 -0.34 0.68 0 0 Z " fill="#4E4E4D" transform="translate(42,67)"/>
<path d="M0 0 C2.475 0.99 2.475 0.99 5 2 C5 2.99 5 3.98 5 5 C4.06027344 5.19916016 4.06027344 5.19916016 3.1015625 5.40234375 C1.87566406 5.66724609 1.87566406 5.66724609 0.625 5.9375 C-0.18710937 6.11152344 -0.99921875 6.28554688 -1.8359375 6.46484375 C-4.029463 6.92330693 -4.029463 6.92330693 -6 8 C-5.3125 5.5625 -5.3125 5.5625 -4 3 C-1.375 2.1875 -1.375 2.1875 1 2 C0.67 1.34 0.34 0.68 0 0 Z " fill="#535353" transform="translate(50,24)"/>
<path d="M0 0 C1.7325 0.7115625 1.7325 0.7115625 3.5 1.4375 C7.68570332 3.02208768 11.55238986 3.60289195 16 4 C16 4.33 16 4.66 16 5 C14.01432292 5.22786458 12.02864583 5.45572917 10.04296875 5.68359375 C7.80603607 5.97170735 7.80603607 5.97170735 5 7 C3.29115995 5.37660195 1.62553283 3.70680947 0 2 C0 1.34 0 0.68 0 0 Z " fill="#303030" transform="translate(49,60)"/>
<path d="M0 0 C0 0.33 0 0.66 0 1 C-0.84304687 1.12117188 -1.68609375 1.24234375 -2.5546875 1.3671875 C-3.65039062 1.53476562 -4.74609375 1.70234375 -5.875 1.875 C-6.96554688 2.03742187 -8.05609375 2.19984375 -9.1796875 2.3671875 C-12.11932714 2.76256513 -12.11932714 2.76256513 -14 5 C-14.99 4.01 -15.98 3.02 -17 2 C-10.83354621 -0.52653315 -6.56407612 -1.31281522 0 0 Z " fill="#E7E7E7" transform="translate(78,32)"/>
<path d="M0 0 C3.25524265 3.02272532 5.61820737 6.25718301 8 10 C7 12 7 12 5 13 C4.15930585 11.39967863 3.32768495 9.79458829 2.5 8.1875 C1.80390625 6.84751953 1.80390625 6.84751953 1.09375 5.48046875 C0 3 0 3 0 0 Z " fill="#111111" transform="translate(91,22)"/>
<path d="M0 0 C2.8743384 2.8743384 2.8074996 5.86452878 3.4375 9.78515625 C3.7159375 10.88150391 3.7159375 10.88150391 4 12 C4.66 12.33 5.32 12.66 6 13 C1.125 12.125 1.125 12.125 0 11 C-0.07226502 9.14712498 -0.0838122 7.29166122 -0.0625 5.4375 C-0.05347656 4.42558594 -0.04445313 3.41367188 -0.03515625 2.37109375 C-0.02355469 1.58863281 -0.01195312 0.80617188 0 0 Z " fill="#31A94E" transform="translate(15,113)"/>
<path d="M0 0 C1.4606285 2.64738916 2 3.89448334 2 7 C1.1646875 6.505 1.1646875 6.505 0.3125 6 C-2.30284522 4.8690399 -4.1806646 4.84337026 -7 5 C-7.33 4.01 -7.66 3.02 -8 2 C-5.36 1.34 -2.72 0.68 0 0 Z " fill="#868787" transform="translate(83,48)"/>
<path d="M0 0 C1.98 0 3.96 0 6 0 C6.33 0.66 6.66 1.32 7 2 C6.34 2 5.68 2 5 2 C4.7525 2.639375 4.505 3.27875 4.25 3.9375 C3 6 3 6 0.875 6.75 C-0.053125 6.87375 -0.053125 6.87375 -1 7 C-1.33 6.34 -1.66 5.68 -2 5 C-1.01 5 -0.02 5 1 5 C0.67 3.35 0.34 1.7 0 0 Z " fill="#979797" transform="translate(41,25)"/>
<path d="M0 0 C-0.33 1.98 -0.66 3.96 -1 6 C-2.32 6 -3.64 6 -5 6 C-5.66 4.35 -6.32 2.7 -7 1 C-4.50935112 0.31292445 -2.62113708 0 0 0 Z " fill="#DDDCDB" transform="translate(63,71)"/>
<path d="M0 0 C0.66 0.66 1.32 1.32 2 2 C1.34 2 0.68 2 0 2 C-0.0825 2.5775 -0.165 3.155 -0.25 3.75 C-1.21797787 6.6539336 -2.68694284 8.03740604 -5 10 C-5.66 10 -6.32 10 -7 10 C-7.33 9.01 -7.66 8.02 -8 7 C-6.02 6.34 -4.04 5.68 -2 5 C-2.33 4.01 -2.66 3.02 -3 2 C-2.01 1.34 -1.02 0.68 0 0 Z " fill="#3E3E3E" transform="translate(75,56)"/>
<path d="M0 0 C2 3 2 3 3.4375 6.5 C4.75745953 9.45670934 5.54921329 11.01602981 8 13 C7.67 13.66 7.34 14.32 7 15 C5.84501103 13.92643323 4.70132133 12.84070212 3.5625 11.75 C2.92441406 11.14671875 2.28632812 10.5434375 1.62890625 9.921875 C-0.12129963 7.85688389 -0.54305984 6.62609289 -1 4 C-1.33 3.01 -1.66 2.02 -2 1 C-1.34 0.67 -0.68 0.34 0 0 Z " fill="#2F2F2F" transform="translate(50,10)"/>
<path d="M0 0 C0.66 0 1.32 0 2 0 C2.33 1.65 2.66 3.3 3 5 C3.99 5.33 4.98 5.66 6 6 C6 6.66 6 7.32 6 8 C3.625 8.125 3.625 8.125 1 8 C-1 6 -1 6 -1.1875 3.4375 C-1 1 -1 1 0 0 Z " fill="#EBF3EE" transform="translate(46,108)"/>
<path d="M0 0 C0.66 0 1.32 0 2 0 C2.33 1.98 2.66 3.96 3 6 C4.65 5.67 6.3 5.34 8 5 C6.8125 6.5625 6.8125 6.5625 5 8 C2.3125 7.6875 2.3125 7.6875 0 7 C0 4.69 0 2.38 0 0 Z " fill="#E5EFE8" transform="translate(80,101)"/>
<path d="M0 0 C1.65 0.33 3.3 0.66 5 1 C5.33 1.99 5.66 2.98 6 4 C6.66 4.33 7.32 4.66 8 5 C4.5647952 7.29013653 3.014669 7.17842973 -1 7 C-0.67 4.69 -0.34 2.38 0 0 Z " fill="#243226" transform="translate(59,80)"/>
<path d="M0 0 C2.64 0 5.28 0 8 0 C8.33 0.66 8.66 1.32 9 2 C4.375 5 4.375 5 1 5 C0.67 3.35 0.34 1.7 0 0 Z " fill="#474846" transform="translate(70,48)"/>
<path d="M0 0 C0.66 0.33 1.32 0.66 2 1 C2.39764263 2.98821313 2.72428861 4.99124558 3 7 C3.31674575 8.33737094 3.64270064 9.67288808 4 11 C3.34 11 2.68 11 2 11 C2 10.01 2 9.02 2 8 C0.68 8 -0.64 8 -2 8 C-1.125 2.25 -1.125 2.25 0 0 Z " fill="#232322" transform="translate(76,68)"/>
<path d="M0 0 C0.33 0.66 0.66 1.32 1 2 C1.99 2.66 2.98 3.32 4 4 C4 4.99 4 5.98 4 7 C1.36 6.34 -1.28 5.68 -4 5 C-4 4.34 -4 3.68 -4 3 C-3.34 3 -2.68 3 -2 3 C-2 2.34 -2 1.68 -2 1 C-1.34 0.67 -0.68 0.34 0 0 Z " fill="#75736F" transform="translate(70,40)"/>
<path d="M0 0 C0.66 0.66 1.32 1.32 2 2 C1.625 5.125 1.625 5.125 1 8 C-0.98 8 -2.96 8 -5 8 C-5.33 7.34 -5.66 6.68 -6 6 C-4.02 5.67 -2.04 5.34 0 5 C-0.2784375 4.0409375 -0.2784375 4.0409375 -0.5625 3.0625 C-0.706875 2.381875 -0.85125 1.70125 -1 1 C-0.67 0.67 -0.34 0.34 0 0 Z " fill="#479661" transform="translate(78,88)"/>
<path d="M0 0 C1.32 0.66 2.64 1.32 4 2 C3.67 4.31 3.34 6.62 3 9 C1.68 8.01 0.36 7.02 -1 6 C-0.67 4.02 -0.34 2.04 0 0 Z " fill="#ACADAF" transform="translate(87,54)"/>
<path d="M0 0 C1.32 0.33 2.64 0.66 4 1 C3.67 3.31 3.34 5.62 3 8 C1.02 7.34 -0.96 6.68 -3 6 C-2.67 5.01 -2.34 4.02 -2 3 C-1.01 3.33 -0.02 3.66 1 4 C0.67 2.68 0.34 1.36 0 0 Z " fill="#979999" transform="translate(79,38)"/>
<path d="M0 0 C1.32 0 2.64 0 4 0 C4.33 1.98 4.66 3.96 5 6 C3.02 6.99 3.02 6.99 1 8 C0.67 5.36 0.34 2.72 0 0 Z " fill="#8F8E8B" transform="translate(35,41)"/>
<path d="M0 0 C0.33 1.65 0.66 3.3 1 5 C0.01 5.66 -0.98 6.32 -2 7 C-2.99 6.67 -3.98 6.34 -5 6 C-5 4.68 -5 3.36 -5 2 C-2 0 -2 0 0 0 Z " fill="#5B5B5A" transform="translate(46,19)"/>
<path d="M0 0 C0.66 0.33 1.32 0.66 2 1 C2.59355614 3.64860427 2.74209269 6.29197322 3 9 C1.35 9.33 -0.3 9.66 -2 10 C-2 9.34 -2 8.68 -2 8 C-1.34 8 -0.68 8 0 8 C0 5.36 0 2.72 0 0 Z " fill="#EEF5F0" transform="translate(29,111)"/>
<path d="M0 0 C-0.33 1.32 -0.66 2.64 -1 4 C-1.99 4 -2.98 4 -4 4 C-4.33 4.99 -4.66 5.98 -5 7 C-5 6.01 -5 5.02 -5 4 C-5.66 4 -6.32 4 -7 4 C-7 4.66 -7 5.32 -7 6 C-7.66 6 -8.32 6 -9 6 C-9 5.01 -9 4.02 -9 3 C-2.25 0 -2.25 0 0 0 Z " fill="#524E49" transform="translate(77,77)"/>
<path d="M0 0 C0.66 0 1.32 0 2 0 C2 1.32 2 2.64 2 4 C3.32 3.67 4.64 3.34 6 3 C6.33 4.32 6.66 5.64 7 7 C5.68 7.33 4.36 7.66 3 8 C0 3.375 0 3.375 0 0 Z " fill="#9B9B9B" transform="translate(60,5)"/>
<path d="M0 0 C0.99 0.33 1.98 0.66 3 1 C3 1.66 3 2.32 3 3 C4.32 2.67 5.64 2.34 7 2 C7.33 2.99 7.66 3.98 8 5 C7.01 6.485 7.01 6.485 6 8 C4.62437146 6.71034824 3.29233607 5.37310707 2 4 C2 3.34 2 2.68 2 2 C1.01 1.67 0.02 1.34 -1 1 C-0.67 0.67 -0.34 0.34 0 0 Z " fill="#1A0F0F" transform="translate(53,0)"/>
<path d="M0 0 C1.65 0 3.3 0 5 0 C5 0.66 5 1.32 5 2 C4.34 2 3.68 2 3 2 C2.67 3.98 2.34 5.96 2 8 C1.34 7.67 0.68 7.34 0 7 C0 4.69 0 2.38 0 0 Z " fill="#D7E8DC" transform="translate(95,96)"/>
<path d="M0 0 C1.32 0.66 2.64 1.32 4 2 C4 3.65 4 5.3 4 7 C4.66 7.33 5.32 7.66 6 8 C5.01 8 4.02 8 3 8 C2.731875 7.195625 2.46375 6.39125 2.1875 5.5625 C1.795625 4.716875 1.40375 3.87125 1 3 C0.01 2.67 -0.98 2.34 -2 2 C-1.34 1.34 -0.68 0.68 0 0 Z " fill="#050505" transform="translate(41,72)"/>
<path d="M0 0 C-0.33 1.32 -0.66 2.64 -1 4 C-1.66 3.34 -2.32 2.68 -3 2 C-3.78375 2.515625 -4.5675 3.03125 -5.375 3.5625 C-6.24125 4.036875 -7.1075 4.51125 -8 5 C-8.66 4.67 -9.32 4.34 -10 4 C-10 3.34 -10 2.68 -10 2 C-6.5980513 -0.09350689 -3.94727588 -0.17942163 0 0 Z " fill="#4E4F4D" transform="translate(52,50)"/>
<path d="M0 0 C1.98 0 3.96 0 6 0 C6 0.66 6 1.32 6 2 C9.465 1.505 9.465 1.505 13 1 C12.67 1.66 12.34 2.32 12 3 C10.37581255 3.08090971 8.75048255 3.13914995 7.125 3.1875 C5.76761719 3.23970703 5.76761719 3.23970703 4.3828125 3.29296875 C3.20332031 3.14794922 3.20332031 3.14794922 2 3 C1.34 2.01 0.68 1.02 0 0 Z " fill="#C1C0BC" transform="translate(42,45)"/>
<path d="M0 0 C1.98 0.495 1.98 0.495 4 1 C3.34 4.3 2.68 7.6 2 11 C-0.52380952 5.95238095 -0.52380952 5.95238095 -1 3 C-0.67 2.01 -0.34 1.02 0 0 Z " fill="#606468" transform="translate(31,31)"/>
<path d="M0 0 C0.66 0 1.32 0 2 0 C2.33 0.66 2.66 1.32 3 2 C3.99 2 4.98 2 6 2 C5.45276317 5.37462715 4.9451 7.08235 3 10 C2.49596232 8.70990357 1.99690074 7.41786211 1.5 6.125 C1.2215625 5.40570312 0.943125 4.68640625 0.65625 3.9453125 C0 2 0 2 0 0 Z " fill="#646564" transform="translate(56,16)"/>
<path d="M0 0 C2.0625 0.4375 2.0625 0.4375 4 1 C3.67 2.32 3.34 3.64 3 5 C1.35 5 -0.3 5 -2 5 C-1.125 1.125 -1.125 1.125 0 0 Z " fill="#C3DCCB" transform="translate(50,97)"/>
<path d="M0 0 C1.65 0 3.3 0 5 0 C5.33 1.65 5.66 3.3 6 5 C5.67 4.34 5.34 3.68 5 3 C1.73045798 3.56371414 0.17424117 4.49962266 -2 7 C-1.34 4.69 -0.68 2.38 0 0 Z " fill="#242525" transform="translate(59,39)"/>
<path d="M0 0 C1.32 0 2.64 0 4 0 C4.33 0.66 4.66 1.32 5 2 C5.99 2.33 6.98 2.66 8 3 C8 3.66 8 4.32 8 5 C8.66 5.33 9.32 5.66 10 6 C8.02 6.99 8.02 6.99 6 8 C3 3.25 3 3.25 3 1 C2.01 0.67 1.02 0.34 0 0 Z " fill="#545454" transform="translate(76,29)"/>
<path d="M0 0 C0.66 0 1.32 0 2 0 C2.33 0.99 2.66 1.98 3 3 C6.465 2.505 6.465 2.505 10 2 C9.01 3.32 8.02 4.64 7 6 C7 5.34 7 4.68 7 4 C5.02 4.33 3.04 4.66 1 5 C0.67 3.35 0.34 1.7 0 0 Z " fill="#C1DCCA" transform="translate(46,91)"/>
<path d="M0 0 C3.3 0 6.6 0 10 0 C9.01 1.485 9.01 1.485 8 3 C4.375 3.1875 4.375 3.1875 1 3 C0.67 2.01 0.34 1.02 0 0 Z " fill="#858687" transform="translate(65,71)"/>
<path d="M0 0 C0.99 0.99 1.98 1.98 3 3 C1.25 6.875 1.25 6.875 -1 8 C-1.66 7.34 -2.32 6.68 -3 6 C-2.34 6 -1.68 6 -1 6 C-0.67 4.02 -0.34 2.04 0 0 Z " fill="#303335" transform="translate(31,48)"/>
<path d="M0 0 C1.65 0 3.3 0 5 0 C4.34 2.31 3.68 4.62 3 7 C2.01 6.67 1.02 6.34 0 6 C0 4.02 0 2.04 0 0 Z " fill="#8D8B87" transform="translate(84,41)"/>
<path d="M0 0 C0.99 0 1.98 0 3 0 C3 1.65 3 3.3 3 5 C1.68 5 0.36 5 -1 5 C-0.67 3.35 -0.34 1.7 0 0 Z " fill="#46935F" transform="translate(49,108)"/>
<path d="M0 0 C0 0.66 0 1.32 0 2 C-2.64 2.33 -5.28 2.66 -8 3 C-8 2.01 -8 1.02 -8 0 C-4.71023192 -1.09658936 -3.28696233 -0.79953138 0 0 Z " fill="#10561D" transform="translate(96,78)"/>
<path d="M0 0 C2.475 0.495 2.475 0.495 5 1 C5.33 3.64 5.66 6.28 6 9 C3 8 3 8 2.05078125 6.15234375 C1.80714844 5.42144531 1.56351563 4.69054688 1.3125 3.9375 C1.06113281 3.20402344 0.80976563 2.47054687 0.55078125 1.71484375 C0.36902344 1.14894531 0.18726562 0.58304688 0 0 Z " fill="#070D07" transform="translate(25,54)"/>
<path d="M0 0 C0 0.99 0 1.98 0 3 C-1.98 3.99 -1.98 3.99 -4 5 C-4.33 4.01 -4.66 3.02 -5 2 C-5.66 1.67 -6.32 1.34 -7 1 C-3.375 -1.125 -3.375 -1.125 0 0 Z " fill="#DCDCDC" transform="translate(77,53)"/>
<path d="M0 0 C0.66 0 1.32 0 2 0 C2 1.32 2 2.64 2 4 C2.99 3.67 3.98 3.34 5 3 C5 3.66 5 4.32 5 5 C3.02 5.66 1.04 6.32 -1 7 C-1.04254356 5.00045254 -1.04080783 2.99958364 -1 1 C-0.67 0.67 -0.34 0.34 0 0 Z " fill="#898A8A" transform="translate(42,38)"/>
<path d="M0 0 C3.31012244 3.31012244 3.50351065 4.53159589 4 9 C3.01 9 2.02 9 1 9 C0.67 6.03 0.34 3.06 0 0 Z " fill="#B4B8BB" transform="translate(93,30)"/>
<path d="M0 0 C1.875 0.1875 1.875 0.1875 4 1 C5.3125 3.375 5.3125 3.375 6 6 C5.67 6.99 5.34 7.98 5 9 C4.16396622 7.68921847 3.3312426 6.37632511 2.5 5.0625 C2.0359375 4.33160156 1.571875 3.60070312 1.09375 2.84765625 C0 1 0 1 0 0 Z " fill="#656769" transform="translate(87,21)"/>
<path d="M0 0 C0.99 0 1.98 0 3 0 C3.33 3.3 3.66 6.6 4 10 C0.14285714 4.85714286 0.14285714 4.85714286 -1 2 C-0.67 1.34 -0.34 0.68 0 0 Z " fill="#333233" transform="translate(68,8)"/>
<path d="M0 0 C0.33 0 0.66 0 1 0 C1 1.65 1 3.3 1 5 C1.99 5.33 2.98 5.66 4 6 C3.67 7.65 3.34 9.3 3 11 C1.5 10 1.5 10 0 8 C-0.27345479 5.28153765 -0.13491285 2.74322801 0 0 Z " fill="#6B6662" transform="translate(62,74)"/>
<path d="M0 0 C1.32 0 2.64 0 4 0 C4 0.66 4 1.32 4 2 C3.01 2.66 2.02 3.32 1 4 C0.67 4.99 0.34 5.98 0 7 C-0.66 7 -1.32 7 -2 7 C-2 5.35 -2 3.7 -2 2 C-1.34 2 -0.68 2 0 2 C0 1.34 0 0.68 0 0 Z " fill="#A7A8AB" transform="translate(83,62)"/>
<path d="M0 0 C-0.99 0.495 -0.99 0.495 -2 1 C-2 1.66 -2 2.32 -2 3 C-3.98 3.66 -5.96 4.32 -8 5 C-8 4.01 -8 3.02 -8 2 C-4.77208445 -0.1519437 -3.71599191 -0.20086443 0 0 Z " fill="#B4B5B7" transform="translate(74,28)"/>
<path d="M0 0 C1.49403054 2.98806107 2.79310745 5.89656201 4 9 C3.01 9.495 3.01 9.495 2 10 C1.34 9.67 0.68 9.34 0 9 C0 6.03 0 3.06 0 0 Z " fill="#5F5F5F" transform="translate(47,8)"/>
<path d="M0 0 C0.33 0 0.66 0 1 0 C1.33 3.3 1.66 6.6 2 10 C0.35 9.67 -1.3 9.34 -3 9 C-2.01 6.03 -1.02 3.06 0 0 Z " fill="#080708" transform="translate(45,6)"/>
<path d="M0 0 C0.99 0.33 1.98 0.66 3 1 C2.34 2.65 1.68 4.3 1 6 C0.34 6 -0.32 6 -1 6 C-1.33 6.66 -1.66 7.32 -2 8 C-2.66 7.67 -3.32 7.34 -4 7 C-3.67 6.01 -3.34 5.02 -3 4 C-2.01 4.33 -1.02 4.66 0 5 C0 3.35 0 1.7 0 0 Z " fill="#2A2A2B" transform="translate(85,66)"/>
<path d="M0 0 C1.32 0 2.64 0 4 0 C4 1.32 4 2.64 4 4 C3.34 4.66 2.68 5.32 2 6 C0 3 0 3 0 0 Z M0 6 C0.66 6 1.32 6 2 6 C1.67 6.66 1.34 7.32 1 8 C0.67 7.34 0.34 6.68 0 6 Z " fill="#282127" transform="translate(29,57)"/>
<path d="M0 0 C0 1.32 0 2.64 0 4 C-0.66 4 -1.32 4 -2 4 C-2.66 3.34 -3.32 2.68 -4 2 C-5.98 2.99 -5.98 2.99 -8 4 C-8 3.01 -8 2.02 -8 1 C-5.07175348 0.02391783 -3.04386724 -0.08226668 0 0 Z " fill="#222322" transform="translate(52,38)"/>
<path d="M0 0 C0.99 0 1.98 0 3 0 C4 3 4 3 3 6 C2.34 6 1.68 6 1 6 C1 5.01 1 4.02 1 3 C0.01 2.67 -0.98 2.34 -2 2 C-1.34 1.34 -0.68 0.68 0 0 Z " fill="#707371" transform="translate(37,34)"/>
<path d="M0 0 C1.7074998 1.28062485 3.37373596 2.61767557 5 4 C5 4.66 5 5.32 5 6 C4.01 6.33 3.02 6.66 2 7 C0 4 0 4 0 0 Z " fill="#AFAFAF" transform="translate(54,3)"/>
<path d="M0 0 C0.33 0 0.66 0 1 0 C1.33 2.31 1.66 4.62 2 7 C1.01 7 0.02 7 -1 7 C-1 6.01 -1 5.02 -1 4 C-1.99 3.67 -2.98 3.34 -4 3 C-3.01 3 -2.02 3 -1 3 C-0.67 2.01 -0.34 1.02 0 0 Z " fill="#F9FBFA" transform="translate(55,94)"/>
<path d="M0 0 C0.66 0.33 1.32 0.66 2 1 C2 1.99 2 2.98 2 4 C0.02 4 -1.96 4 -4 4 C-3.67 3.01 -3.34 2.02 -3 1 C-2.01 0.67 -1.02 0.34 0 0 Z " fill="#B9D7C2" transform="translate(76,89)"/>
<path d="M0 0 C0 0.66 0 1.32 0 2 C-1.98 2.99 -3.96 3.98 -6 5 C-6.33 3.68 -6.66 2.36 -7 1 C-2.25 0 -2.25 0 0 0 Z " fill="#F1F7F3" transform="translate(86,87)"/>
<path d="M0 0 C0.66 0.33 1.32 0.66 2 1 C1.67 2.98 1.34 4.96 1 7 C-0.32 7 -1.64 7 -3 7 C-1.125 1.125 -1.125 1.125 0 0 Z " fill="#BEBEBD" transform="translate(74,64)"/>
<path d="M0 0 C0.66 0.33 1.32 0.66 2 1 C1.67 2.32 1.34 3.64 1 5 C0.34 5 -0.32 5 -1 5 C-1 5.99 -1 6.98 -1 8 C-1.66 8 -2.32 8 -3 8 C-2.45276317 4.62537285 -1.9451 2.91765 0 0 Z " fill="#757575" transform="translate(77,62)"/>
<path d="M0 0 C0.66 1.32 1.32 2.64 2 4 C0.02 5.32 -1.96 6.64 -4 8 C-2.87548273 5.0280615 -1.77706209 2.66559313 0 0 Z " fill="#DBDBDB" transform="translate(75,59)"/>
<path d="M0 0 C0 0.66 0 1.32 0 2 C-0.66 2.66 -1.32 3.32 -2 4 C-2.33 4.66 -2.66 5.32 -3 6 C-4.32 6 -5.64 6 -7 6 C-7 5.34 -7 4.68 -7 4 C-2.52941176 0 -2.52941176 0 0 0 Z " fill="#313131" transform="translate(79,21)"/>
<path d="M0 0 C0.33 1.32 0.66 2.64 1 4 C1.66 4 2.32 4 3 4 C3 4.99 3 5.98 3 7 C1.35 7 -0.3 7 -2 7 C-2 6.34 -2 5.68 -2 5 C-1.34 5 -0.68 5 0 5 C0 3.35 0 1.7 0 0 Z " fill="#E7F1EA" transform="translate(41,111)"/>
<path d="M0 0 C2.12508244 3.18762365 2.5020163 5.26512223 3 9 C2.01 9.495 2.01 9.495 1 10 C-0.60725635 6.78548731 -0.05748185 3.56387464 0 0 Z " fill="#60A276" transform="translate(31,110)"/>
<path d="M0 0 C1.52299523 2.93720508 2.80100302 5.9168649 4 9 C3.01 9.33 2.02 9.66 1 10 C-0.60725635 6.78548731 -0.05748185 3.56387464 0 0 Z " fill="#41935B" transform="translate(43,107)"/>
<path d="M0 0 C-1.15173355 2.46800047 -2.04783565 4.04783565 -4 6 C-4.33 4.35 -4.66 2.7 -5 1 C-3 0 -3 0 0 0 Z " fill="#D0E4D7" transform="translate(79,100)"/>
<path d="M0 0 C1.32 0 2.64 0 4 0 C3.6875 1.9375 3.6875 1.9375 3 4 C2.01 4.33 1.02 4.66 0 5 C-0.5625 3.0625 -0.5625 3.0625 -1 1 C-0.67 0.67 -0.34 0.34 0 0 Z " fill="#D5E7DB" transform="translate(90,97)"/>
<path d="M0 0 C1.48117801 0.28127421 2.95993249 0.57533732 4.4375 0.875 C5.67306641 1.11863281 5.67306641 1.11863281 6.93359375 1.3671875 C7.61550781 1.57601562 8.29742187 1.78484375 9 2 C9.33 2.66 9.66 3.32 10 4 C6.05272412 4.17942163 3.4019487 4.09350689 0 2 C0 1.34 0 0.68 0 0 Z " fill="#7A7A7A" transform="translate(46,57)"/>
<path d="M0 0 C1.32 0.33 2.64 0.66 4 1 C3.01 2.485 3.01 2.485 2 4 C0.68 4 -0.64 4 -2 4 C-1.34 2.68 -0.68 1.36 0 0 Z " fill="#222221" transform="translate(65,50)"/>
<path d="M0 0 C2.97 0.495 2.97 0.495 6 1 C6 1.99 6 2.98 6 4 C3.83125748 3.49396008 2.00032373 3.00016187 0 2 C0 1.34 0 0.68 0 0 Z " fill="#262624" transform="translate(54,50)"/>
<path d="M0 0 C0.66 0 1.32 0 2 0 C1.67 2.97 1.34 5.94 1 9 C0.34 8.67 -0.32 8.34 -1 8 C-0.67 5.36 -0.34 2.72 0 0 Z " fill="#0C0C0D" transform="translate(89,42)"/>
<path d="M0 0 C2.31 0 4.62 0 7 0 C7.33 0.99 7.66 1.98 8 3 C5.125 3.1875 5.125 3.1875 2 3 C1.34 2.01 0.68 1.02 0 0 Z " fill="#7B7D79" transform="translate(69,34)"/>
<path d="M0 0 C0.66 1.32 1.32 2.64 2 4 C1.01 4 0.02 4 -1 4 C-1.33 4.99 -1.66 5.98 -2 7 C-2.66 6.67 -3.32 6.34 -4 6 C-2.68 4.02 -1.36 2.04 0 0 Z " fill="#666666" transform="translate(40,26)"/>
<path d="M0 0 C0 0.66 0 1.32 0 2 C-2.31 3.32 -4.62 4.64 -7 6 C-7.33 5.34 -7.66 4.68 -8 4 C-4.5 0 -4.5 0 0 0 Z " fill="#36393D" transform="translate(45,14)"/>
</svg>
